<?xml version="1.0" encoding="UTF-8"?>
<svg id="Layer_1" data-name="Layer 1" xmlns="http://www.w3.org/2000/svg" viewBox="0 0 180 180">
  <defs>
    <style>
      .cls-1 {
        fill: #e81f76;
      }

      .cls-1, .cls-2, .cls-3 {
        stroke-width: 0px;
      }

      .cls-2 {
        fill: #fff;
      }

      .cls-3 {
        fill: #9e28b5;
      }
    </style>
  </defs>
  <rect class="cls-2" y="-1" width="180" height="180"/>
  <circle class="cls-1" cx="77.14" cy="44.17" r="4"/>
  <g>
    <path class="cls-1" d="m42.41,86.23l-10.54-21.54-3.02,25.53c-.23,1.65-1.37,2.79-3.42,2.79-1.82,0-2.74-1.71-2.56-3.36l4.1-33.62c.17-1.54,1.31-2.85,2.85-2.85h.4c1.25,0,2.45.51,3.13,1.94l12.59,26.33,12.59-26.33c.68-1.42,1.88-1.94,3.13-1.94h.4c1.54,0,2.68,1.31,2.85,2.85l4.1,33.62c.17,1.65-.74,3.36-2.56,3.36-2.05,0-3.19-1.14-3.42-2.79l-3.02-25.53-10.54,21.54c-.57,1.2-1.65,2.51-3.53,2.51s-2.96-1.31-3.53-2.51Z"/>
    <path class="cls-1" d="m80.25,89.93c0,1.65-1.37,3.08-3.13,3.08-1.6,0-2.91-1.42-2.91-3.08v-33.68c0-1.65,1.31-3.08,2.91-3.08,1.77,0,3.13,1.43,3.13,3.08v33.68Z"/>
    <path class="cls-1" d="m115.41,90.16c0,1.54-1.25,2.85-2.85,2.85h-.8c-1.37,0-2.11-.46-2.85-1.71l-16.01-26.67v25.3c0,1.65-1.37,3.08-3.13,3.08-1.6,0-2.91-1.42-2.91-3.08v-33.85c0-1.6,1.31-2.91,2.91-2.91h.8c1.37,0,2.22.46,2.96,1.71l15.84,26.44v-25.07c0-1.65,1.31-3.08,2.91-3.08,1.77,0,3.13,1.43,3.13,3.08v33.91Z"/>
    <path class="cls-1" d="m125.15,92.73c-1.82,0-3.19-1.25-3.19-3.3v-32.65c0-2.05,1.37-3.31,3.19-3.31h12.08c11.17,0,17.67,8.55,17.67,19.72s-6.5,19.55-17.67,19.55h-12.08Zm2.85-5.58h9.23c7.69,0,11.63-6.15,11.63-13.96s-3.93-14.13-11.63-14.13h-9.23v28.09Z"/>
  </g>
  <g>
    <path class="cls-3" d="m25.95,137.5c-2.06,0-3.22-1.61-3.22-3.45v-31.4c.06-1.89,1.17-3.45,3.22-3.45h12.12c6.89,0,11.34,4.11,11.34,10.67,0,2.5-1.28,5.67-5.22,7.17,5.06,1.28,7.22,5.61,7.22,8.73,0,6.34-4.61,11.73-12.23,11.73h-13.23Zm11.34-23.01c2.11,0,3.56-1.78,3.56-4.06s-1.22-4.06-3.61-4.06h-6.34v8.11h6.39Zm-6.39,6.45v9.39h7.84c2.72,0,4.11-2.5,4.11-4.78s-1.39-4.61-4.28-4.61h-7.67Z"/>
    <path class="cls-3" d="m70.91,98.76c10.89,0,19.45,8.78,19.45,19.67s-8.56,19.56-19.45,19.56-19.4-8.78-19.4-19.56,8.56-19.67,19.4-19.67Zm0,31.35c6.5,0,11.34-5.28,11.34-11.67s-4.83-11.78-11.34-11.78-11.28,5.39-11.28,11.78,4.78,11.67,11.28,11.67Z"/>
    <path class="cls-3" d="m95.8,137.5c-2.06,0-3.22-1.61-3.22-3.45v-31.4c.06-1.89,1.17-3.45,3.22-3.45h12.12c6.89,0,11.34,4.11,11.34,10.67,0,2.5-1.28,5.67-5.22,7.17,5.06,1.28,7.22,5.61,7.22,8.73,0,6.34-4.61,11.73-12.23,11.73h-13.23Zm11.34-23.01c2.11,0,3.56-1.78,3.56-4.06s-1.22-4.06-3.61-4.06h-6.34v8.11h6.39Zm-6.39,6.45v9.39h7.84c2.72,0,4.11-2.5,4.11-4.78s-1.39-4.61-4.28-4.61h-7.67Z"/>
    <path class="cls-3" d="m131.42,128.44l-2.61,7c-.72,1.89-3.06,2.78-5.11,2.11-2-.67-3.11-3.17-2.45-5.06l11.06-29.79c.89-2.33,2.67-3.78,5.5-3.78h.33c2.83,0,4.61,1.44,5.5,3.78l11.06,29.79c.67,1.89-.44,4.39-2.45,5.06-2.06.67-4.39-.22-5.11-2.11l-2.61-7h-13.12Zm10.45-7.06l-3.89-13.34-3.89,13.34h7.78Z"/>
  </g>
  <g>
    <path class="cls-3" d="m148.82,99.53h-1.87v-.43h4.28v.43h-1.87v5.36h-.54v-5.36Z"/>
    <path class="cls-3" d="m152.16,99.1h.48l2.32,3.95,2.31-3.95h.46v5.79h-.5v-4.82l-2.13,3.62h-.3l-2.13-3.62v4.82h-.5v-5.79Z"/>
  </g>
</svg>