<?xml version="1.0" encoding="UTF-8"?><svg id="Layer_1" xmlns="http://www.w3.org/2000/svg" viewBox="0 0 1039 823"><defs><style>.cls-1{fill:#ffe7a2;}.cls-2{fill:#ffeaae;}</style></defs><path class="cls-1" d="m979.89,673.1c-16.69-27.54-93.43-5.27-103.02,28.29-9.58,33.56,40.2,46.67,67.64,40.17,27.44-6.5,52.07-40.92,35.37-68.46Z"/><path class="cls-2" d="m981.21,672.29c-.26-.03-.6.28-.3.63l.82-.11-.52-.52Z"/><path class="cls-2" d="m981.44,675.63c.55.3,1.4.58,1.9-.04-.9-.16-.65-.43-1.72-.51-.3-.35-.16-.8.13-.87-.25-.04-.19-.7-.73-.67-.24.81.09,1.44.9,1.9-.08.23-.33.17-.47.2Z"/><path class="cls-2" d="m976.9,716.14l.22-.18c-.08.04-.16.1-.22.18Z"/><path class="cls-2" d="m958.25,734.11c.16-.12.19-.22.16-.29-.13.14-.24.25-.16.29Z"/><path class="cls-2" d="m954,735.52c.09-.02.17-.05.25-.07-.12-.02-.22,0-.25.07Z"/><path class="cls-2" d="m976.9,716.14l-.57.46c.19.18.35-.2.57-.46Z"/><path class="cls-2" d="m985.47,680.58c-.08-.14-.19-.24-.32-.32.08.11.14.22.2.34.04,0,.08,0,.12-.01Z"/><path class="cls-2" d="m981.3,705.58l.07-.2c-.06-.09-.14-.17-.24-.26l.17.46Z"/><path class="cls-2" d="m983.18,697.12c-.06.19.58.34.85.46-.25-.15-.36-.31-.38-.49-.12-.02-.28-.01-.48.03Z"/><path class="cls-2" d="m983.48,683.3l-.16-.22c.04.06.1.15.16.22Z"/><path class="cls-2" d="m978.76,711.27c-.09-.03-.18-.04-.24-.03.07.04.16.04.24.03Z"/><path class="cls-2" d="m974.07,663.2s-.04.07-.06.1c.08-.02.12-.05.06-.1Z"/><path class="cls-2" d="m979.74,673.18l-.11-.1c-.11.05-.23.1-.33.17l.44-.07Z"/><path class="cls-2" d="m946.4,737.71s.02,0,.04,0c.17-.14.07-.09-.04,0Z"/><path class="cls-2" d="m880.68,719.26c-.06.47-.41.29-.69.12-.28-.16-.56-.29-.61.42.16-.19,1.45.48,1.3-.54Z"/><path class="cls-2" d="m985.46,680.85c.04.12.08.25.11.37-.03-.18-.06-.29-.11-.37Z"/><path class="cls-2" d="m879.38,719.81h0c0,.05,0,.1,0,.15,0-.06,0-.09,0-.15Z"/><path class="cls-2" d="m928.37,740.34c.04.12.11.2.19.29,0-.07-.05-.15-.19-.29Z"/><path class="cls-2" d="m942.22,740.12l-.35-.02c.14.03.26.03.35.02Z"/><path class="cls-2" d="m921.1,740.86c-.18-.07-.24-.17-.5-.11.02.04.04.06.07.09.1-.08.23-.11.43.02Z"/><path class="cls-2" d="m913.6,739.75c.03.06.07.1.11.16.08,0,.16,0,.24.01l-.35-.17Z"/><path class="cls-2" d="m949.78,657.94c.18.18.29.39.37.59-.13-.47,1.06-.64-.37-.59Z"/><path class="cls-2" d="m985.12,680.7c.17,0,.27.04.34.15-.03-.09-.07-.17-.11-.25-.1,0-.19.03-.23.1Z"/><path class="cls-2" d="m920.25,745.97l-1.26-.25c.35.11.8.19,1.26.25Z"/><path class="cls-2" d="m895.95,674.8l.2-.23c-.1.05-.18.12-.2.23Z"/><path class="cls-2" d="m915.23,745.3c-.19-.26-.4-.43-.63-.56-.06.04-.13.07-.17.14l.81.41Z"/><path class="cls-2" d="m950.16,658.53h0s0,0,0,0Z"/><path class="cls-2" d="m958.74,657.5c-1.24-.17-.69.77-1.01,1.23-1.48.08-.6-.71-1.06-1.2-.95.15-1.7.88-2.38.81-.04-.14-.17-.2,0-.37-1,.62-2.87-.09-3.98.78-.08-.08-.12-.15-.14-.21.18.43.21.87.17,1.18-.53.02-.98.56-1.19,0,.33.01.35-.21.5-.39l-.56.25c-.52-.81.76-.29.76-.89-1.11.26-2.36.98-3.2.79-.22-.79,1.96-.34.8-1,.44.09.88.16,1.32.26-1.03-1.24.8.08-.15-1.25-1.76-.17-1.94.46-3.68.34-.36.46.17.64-.18,1.11-2.35.99-2.1-1.84-3.79-.59-.41.58-.46,1.58-1.78,1.23l.31-.95c-1.67.14-.76,1.39-2.57,1.07.25-.4,1.24-.5.98-.57-1.22-.52-.71.63-1.56.76l-.31-.76c-1.73.43-3.54,1.35-5.4,1.93.05-.25.33-.57-.17-.71-2.32.93-5.14,1.16-7.58,1.4l-.67.93c-.2.06-.47-.18-.29-.37-.97.03.08.43-.26.82-.49.2-.79-.17-.53-.46-1.4,1.05-4,2.66-5.86,2.61l.24-.31c-1.36.22-.9,1.85-2.28,1.72l.17-.2c-2.82.82-5.45,2.73-7.9,2.81.07,1.06-2.78.94-2.29,2.25-1.78.2-1.49-.25-3.77.54-.58.27-.37,1.22-.95,1.75l-.39-.6-.49,1.2-.94-.43-.51.56c.27-.13.69-.07.77.13-.77.89-2.59,1.12-2.82.85-.63.69-1.25,1.38-1.85,2.09-.13-.27.18-.62.36-.99-.73,1.46-.67-.45-1.34.89.24.02.18.4.25.53-.78.07-1.99.99-2.73,1.87l-.15-.52c-1.66,1.21-3.1,3.02-4.7,4.68.75-.43,1.22.31.82.84l-.74-.34c.04.63.69-.3.5.73-.64.56-1.02-.17-.87-.7l-.51.95c-.21-.11-.13-.37-.3-.61.03.32-.42.53-.85.79-.42.27-.83.6-.72,1.1l-.21-.1c-1.49,1.82-1.91,2.84-2.93,4.47.54.39,0,.93.17,1.69-.88,1.08-2.1,2.21-2.72,3.83-.18,1.23.37.54.53,1.18-.59-.15-1.15,1.47-1.23.5-.32.99-.47,1.64-.6,2.36-.09.72-.15,1.52-.2,2.81.3-.22.48-.5.64-.3,0,.46-.49.96-.74.85l-.04-.13c.27,1.51-.49,3.04-.86,4.68-.51,1.6-.65,3.27.07,4.38l-.07-.13c.28.79.71,1.55,1.06,2.3.12,1.12-.57-.57-.77.33.35.61.65,1.14.86,1.66.21.51.33,1,.45,1.49.26.95.57,1.85,1.3,2.7-.22.58-.09,1.18.16,1.83.27.64.67,1.32,1.19,1.91.51.61,1.02,1.24,1.48,1.83.48.57.86,1.16,1.02,1.78l.22-.38c.68.17.28.71.52,1.07.19-.26-.17-.7.24-.6,1.89,1.56,3.61,3.35,5.52,4.99,1.85,1.71,3.85,3.28,5.94,4.63,1.57.9,1.87-1.48,3.44.39l-.9.42c3.62.66,6.77,2.83,10.33,3.06-.25.11-.32.34-.64.24.55.74,2.61.75,2.73.31.5.19.02.43.28.75.64.51,1.96-.27,2.21.36.04.1-.24.13-.38.14.53-.15,2.16.57,1.85-.17,1.21.54,2.48.2,3.42.75.78-.61,2.13.68,2.49-.29-.25,1.06,2.14,1.13,3,.73-.31.29.67.41.31.81.93.08,1.81-.06,1.69-.61,1.63,1.43,3.49-.79,4.38.87,2.77-.46,5.32-.88,7.8-1.29-.03,1.09-2.73.23-2.59,1.32,1.19-.25,2.1-.61,3.01-.94.91-.31,1.81-.52,2.99-.55.62.08-.29.49-.48.7,1.16-.35,2.3-.43,3.41-.62.55-.08,1.1-.17,1.63-.3.53-.14,1.04-.33,1.53-.58.01.1-.19.25-.38.37.4-.12.99-.05.84-.51l-.37.21c-.79-.55,1.3-1.74,1.26-2.15-.35,1.52,2.08-.2,1.45,1.76.25-.16.52-.47.37-.76.42-.02.6.13.3.59,1.39-.66.71-1.02,2-1.43.07.22-.16.39-.21.7.52-.66,1.02-1.27,2.14-1.52-.01.16.18.28-.14.4,1.83-.78,2.6-2.37,4.68-2.92-.1,1.19.79-.04,1.3.68l.9-.77-.61-.15c.91-.44,1.33-1.49,2.22-1.67l-.46.69c.51-.38,1.03-.72,1.53-1.12-.35.11-.72.19-1.08.28.62-.91-.66-.86.57-1.37-.17.22.82-.53,1.54-.39h0c.26-.49.5-1.01,1.21-1.28.32.11.44.87.65.95-.04-.88,1.78-1.55,1.76-2.57-.04.27.23.64.34.67l-.05-.72c.48-.14.59-.11.76.21,1.15-.8-1.05-.57.53-1.25-.07.12.04.15-.11.39,1.41-.9,2.15-2.38,3.41-3.24.94.31-.8,1.09.08,1.26.74-.84,1.38-1.81,1.98-2.81.3-.49.61-.97.95-1.41.31-.46.65-.89,1.03-1.26l-.33.24c-.77-1.02,1.51-.8,1.69-2.04-.09.26.33.7.27.56.52-.52.93-1.16,1.3-1.93.34-.78.71-1.66,1.15-2.69l.12.4c.69-.57,1.34-1.83,1.94-2.56-.14-.4.16-.84-.4-.79.74-.4,1.22-.94,1.57-1.53.32-.61.49-1.28.65-1.94.34-1.31.48-2.61,1.67-3.51-.09.29-.01.78.09.55.18-.71.31-1.44.46-2.15-.57-.01-.4.16-.95.45-.21-.36-.25-1.01-.07-1.5.02,1.01.83.27,1.24-.05-.18.02-.31-.18-.48-.19,1.23-.8-.99-.5.05-1.77l.25.15c.02-.59-.2-1.18,0-1.76.66-.11.15.66.64.82.16-.87-.79-1.92,0-2.56.09.39-.02.91.07,1.3.9-.68.76-.83.98-1.44l-.03.06.56-1.43-.26.35c-.72-.67-.7-1.22-.63-1.82.05-.6.17-1.24-.3-2,.88,1.49.56.28,1.26.44.23-.36.5-.93.68-.76-.53-.73.48-1.19-.33-2.21.23-.04.04-.76.61-.61-.19-.93-.39.23-.68.15-.38-.7-.22-1.53-.06-2.46.19-.93.15-1.95-.48-2.89-.31-.84-.76-1.29-1.13-1.72-.39-.43-.75-.83-1.12-1.55.21-.6.93.22.91.23.12-.92-.15-1.55-.61-2.27.24.1.35-.11.53-.43-.24-.63-.91-.17-.89-1.1.29.06.74.11,1.1.33-.47-.69-1.14-1.27-1.61-1.95.29-.35.73.24,1.07.42-.45-.82-1.25-2.08-1.94-2.07l.04.62c-.16-.29.42-.38.63-.2.79.52.26,1.12.05,1.25-.11-.16-.22-.32-.35-.47-1.01,1.04,1.02,2.04,1.32,3.19-.35-.06-.7-.11-1.07-.15.39.28.73.58,1.1.88-.17.31-.65.62-.94.13-.24.9.53.59.2,1.4-.06.09-.11.07-.17.01.16.23.34.45.48.68-.23-.1-.63.28-.61-.21-.26,1.46,1.16,2.05.55,2.7l-.08-.1c.59,1.86.73.06,1.75,1.42-.54.41-1.08.79-1.63,1.17l.73.12c0,.2-.05.6-.33.55.53.71.3-.15.79.25-.3.51-.19,1.17-.14,1.74.03.57-.04,1.06-.61,1.16.54.35.44-.92.79.12-1.24.27.22,1.21-.43,2.07-.6-.31-.22-1.11-.84-.28,1.01.6-.38,1.67-.25,2.4.83.14.12,1.63.18,2.9-.29-.13-.9,2.2-1.57,3.19l-.13-.07c.75.44.32,1.56.17,2.42-.48-.2-.62-.41-.68-.91l-.26.76c.2.27.25.55.17,1.08l-.54-.41c-.29,1.02-.08,2.29-1,3.4.51.32,1.97-.37,1.74,1.18-.32-.08-.84-.26-.8-.67,0,.14.05.52-.18.7l-.24-.76c-.49.48.27.49,0,.93-.41-.2-.46.2-.76-.02.02-.14.36-.32.29-.57-.32.48-.87.98-1.28,1.03.26.07.56.28.43.68-.46.98-.66.07-1.17.51.16.38-.46.82.13,1.17-.16.28-.46.17-.68.18.02.65-1.27,2.26-.31,2.12l.12-.1s-.02.06-.02.09h0s0,0,0,0c-.1.48-.29.92-.54,1.32-.27.39-.59.76-.93,1.11-.65.72-1.38,1.36-1.82,2.17l-.18-.14c-.43,1.04-1.39,1.99-1.52,2.91-.21.25-.81.31-.93.02-.42.73-.31.97-1.4,1.6.27-.89-.46-.03.37-.83-.89.65-1.28.59-1.67,1.83-.14-.69-1.1.04-1.34.52l.83-.22c-.35.46-.74.79-1.15,1.09l-.33-.75c-1.13.37-1.57,1.32-2.06,2.17-.5.82-1.02,1.57-2.16,1.46-.12.79,1.16-.43,1.15.38-.86.57-2.39.26-2.63.45-1.33.46-.39,1.66-1.76,2.23.3.13.86.65.08,1.48-.94.46-1.68-.35-1.25-.86.19-.14.34-.13.38-.04.23-.26.51-.6.02-.63l.04.31c-.57.02-1.74.74-1.69.19-.51.61-.05.56.51.39-1.3.32-1.74,1-3.03,1.37.25.04.58.24.39.33-1.87.6-.53.85-1.68,1.54-.86-.07-.18-1.03-1.23-.15-.85.08-.44-.6-.25-.94-.87.98-2.18.5-2.82.67l.49-.44c-.29.25-.57.38-.86.47l.52.4c-.37.04-.67.12-.74-.09-.24.46.58.78.03,1.49-.56-.11-1.35.77-1.72.11,1.54-.24-.37-.65.81-1.17-.21.16-.5.26-.87.28-.08-.06,0-.16.09-.23-1.57-.23-.4.98-1.88,1.37.08-.45-.53-.67-.74-.52.58-.15.45.61-.04,1.04-1.04-.11-1,.46-1.52.53l.61.03c-.11.45-.62.5-1.28.77-.11-.3.58-.34.31-.43-.64.87-1.86-.46-2.84.2-.53-.21-.15-.76-.61-.9-1.13.67-1.35-.42-2.55.16.41.52.47.39-.38.99.69-.16,1.36-.4,2.04-.6l-1.25.96c.63-.06,1.29-.5,1.68-.45-.58.52-.54.38-.18.8-.96-.73-1.68.69-2.75.18l-.07-1.38c-1.52-.49-2.62.86-4.59.57l.63.22c-.25.57-1.21.1-1.85.31.06-.46-.34-.63-.6-.92.03.34-1.42-.03-1.63.86l-.85-.65c-1.56-.32-1.88,1.24-3.41.95.5-.46-.16-.84.88-1.12-.51-.05-.95-.17-.99.15-.27-.32-1.47.52-1.89.01-.23.18-.36.65-.93.54-.05-.1.03-.23.03-.23-.03.23-.93.2-.49.77-.71-.8-1.79-.92-2.87-1.05-1.08-.1-2.13-.22-2.69-.96-.56-.03-1.18-.07-1.78-.13-.6-.08-1.18-.17-1.68-.27.09-.12.06-.22.23-.13-1.25-.75-1.16,1.12-2.59.23-.59-.94.92-.16.5-.57.18-1.53-1.91-.29-2.68-1.46h.27c-.61-.75-2.06-.05-3.28-.59,0,0,.1-.1.08-.21-1.1.41-2.84.08-4.1-.26.6-.39.66-.06.67-.71-.56-.15-.21.96-1.35.66-.22-.45-.87-1.02-.69-1.67.32.15.67.26,1,.4-.17-.96-1.28-.53-1.72-.92l.22-.3c-1.51-.6-1.97.22-3.49-.71l.03.33c-1.3.31-.47-.82-1.64-.74l.23-.95c-.64-.15-2.38-.41-3.4-.99.47-.09,1.01,0,1.56.11.56.09,1.12.22,1.57.26-.53-.33-1.81-1.07-2.32-.92.26.08.64.08.76.34-1.02.14-2.09-.16-3.08-.96.64-.63.09-1.24-.59-1.89-.7-.63-1.41-1.46-1.24-2.23-.51-.24-.91-.59-1.25-1-.35-.4-.66-.84-.96-1.3-.49-.98-1.05-1.95-1.63-2.99-.78,1.45-.38-.59-1.56.23-.37-.47-.47-.68-.4-.77l.07-1.96c.22-.52.51.37.78.19-.37-1.15.32-.68.43-1.54-.43.33-.81-.15-.83-.85l-.34,1.12c-1.22-1.42.64-1.7-.38-3.15l.54.42c-.19-.39-.41-1.14-.57-1.91-.17-.77-.46-1.54-1.06-1.96.17-.16.57-.37.66,0,.06-.52.02-1.07-.06-1.64-.04-.28-.09-.57-.15-.86-.02-.29-.05-.58-.07-.87-.04-.58-.07-1.14-.03-1.67.03-.52.24-.99.49-1.36l.3.24c0-.41-.48-.84-.02-1.25.13.06.3.24.36.07-.03-.12-.12-.42-.16-.75-.02-.32.02-.67.2-.9l.24.55c1.04-1.79.18-3.33.81-5.1.9.46,1.99-.83,2.57-1.43l.11.1c1.4-1.97,1.66-3.93,2.92-6,1.78-.36,3.74-3.3,5.98-4.35-.4.09-.48-.64-.22-1,.56-.2.73-1.55,1.26-.76l-.17.11c.92.46,1.64-.45,2.37-.96l-.62-1.07c1.48,0,2.62-1.01,3.69-1.95,1.06-.95,2.06-1.8,3.02-1.46.33-.55.94-.91,1.27-1.47l.31.59c1.45-.64,2.17-.95,3.82-2l-.13.6c.98-.47.36-2.33,1.26-2.83l.71.75c1.74-.87,3.85-.87,5.25-2.44.03.15.09.43-.18.59.84-.35,3.48-.7,2.69-1.84.34.82,1.88-.64,2.75-1.35l.07.67c.55-1.08.5-1.31,1.61-1.92.31-.01.41.41-.01.38,1.04.02.53-.84,1.77-.87l-.3.53c.98-.25.83-.44,1.22-1.07.53-.44,1.89-.39,2.19.14.03-.39.43-1,1.05-.99.14.19-.04.38-.12.48,1.73-.02,2.24-1.37,3.52-1.03.07.2.17.29.28.33-1.3.3-2.35.53-2.26.46.15.58,1.21.43.6,1.43.71-.64,1.91-1.96,3-1.9.06.05.12.09.18.17l-.09.09c.25,0,.45-.1.62-.24.35.03.57.06.88,0,.22.47,1.25,0,1.78-.05-.17-.64.54-.66-.2-1.08.09.03-.09.1-.43.19-.08.03-.17.06-.21.11,0-.02.02-.04.02-.06-.34.08-.79.19-1.3.31.35-.41.73-.78,1.38-.54.19-.46.41-.95.55-1.18.9.76,2.37,1.01,2.65,1.55,1.55-.64,3.75-.77,4.65-2.11.45-.21.57.3.76.48-.26.14-.58.16-.7.35.89-.41,2.73-.37,2.89-1.23,1.2.31-.61.83.99.59l-.2.28c1.61.6,2.85.02,4.18-.49,1.32-.5,2.76-.92,4.45.09-.23-.13-.35-.19-.39-.34,1.97.52,4.01.57,6.05.82,2.03.24,4.06.68,5.69,1.89.93.62,1.24.12,2.02,0l-.05.75c.45-.1.92-.21,1.38-.28.87.09,1.33.8,1.79,1.5.24.34.48.68.8.95.32.27.73.44,1.3.52l.07-.54c.56.48,2.02,1.23,1.56,1.57.11-.02.52-.22.56.16l-.23.29c.56.26,1.17.51,1.71.83.37.62.05.81-.19,1.05-.24.24-.41.51.14,1.29.54.44,2.04,1.11,2.12.75-.15-.26-.24-.78.06-1.01l.56.5c.98-.48,2.32-.48,1.84-2.6-.44-.27-.92-.49-1.37-.72l.14-.69.75.92c-.02-.83-.62-.93-1.17-1.08.14-.27.16-.54.04-.82-.57-.12-1.12-.22-1.7-.28.18-.42,1.04-.16.54-.98-.79-.1-.23,1.11-1.19.61-.13-.81.25-.98-.6-1.16.1-.28.34-.32.66-.21-.38-.1-.75-.37-1.12-.58-.37-.2-.73-.34-1.04-.21-.18-.94-1.99-1.13-1.39-1.98-.32.09-1.46.1-2.01-.16,1.59-.57-2.04-1.11-1.23-2.14-1.22.66-3.03-.73-4.63-.55.1-.06.31-.18.42-.09-.76-.34-.9-.73-1.36-1.07-.35.85-1.63.72-2.41,1.14-.78-1.08.82-.92.72-1.81-.12.73-1.87.34-1.66,1.03-.64-.68-.59-.38-.84-1.2-.33,1.1-.74.06-1.47.67-1-.71-.13-1.12-1.38-.92-.27-.21-.12-.38.1-.5.22-.12.5-.19.5-.19Zm-28.06,3.77s0-.01,0-.01c.23-.07.43-.13.55-.16-.11.04-.27.09-.55.18Zm-2.27.55c.28-.04.63-.12.99-.22.13.2.1.45-.13.49.09-.18-.48-.17-.86-.27Zm5.72,3.38c-.33.16-.47.06-.54-.06.16-.04.35-.11.59-.2,0-.02.02-.06.03-.09,0,.13-.02.25-.07.35Z"/><path class="cls-2" d="m934.58,664.23s.07-.06.14-.07c-.08-.04-.16-.08-.24-.11-.03.08-.06.16-.08.23.06-.02.13-.03.19-.05Z"/><path class="cls-2" d="m977.16,715.93l-.04.03s.08-.04.13-.04c-.04.01-.06,0-.09,0Z"/><polygon class="cls-2" points="898.01 673.09 898.1 673.23 898.2 673 898.01 673.09"/><path class="cls-2" d="m984.53,705.36c.06,0,.13-.04.21-.11-.04,0-.12.05-.21.11Z"/><path class="cls-2" d="m986.04,699.93l.35-.75c-.18.32-.29.56-.35.75Z"/><path class="cls-2" d="m986.92,695.63c-.11-.06-.2-.09-.27-.11h0s.28.11.28.11Z"/><path class="cls-2" d="m943.37,744.37c-.06.02-.11.04-.16.06-.37.21-.11.1.16-.06Z"/><path class="cls-2" d="m961.6,734.91c-.11.22-.22.43-.37.62.33-.16.57-.3.37-.62Z"/><path class="cls-2" d="m920.39,746s0,0,0-.01c-.05,0-.09-.01-.14-.02l.14.03Z"/><path class="cls-2" d="m960.43,736.04c.37-.09.61-.28.8-.51-.27.13-.6.26-.8.51Z"/><path class="cls-2" d="m984.12,676.86l-.06-.21s-.08.02-.11.02l.17.19Z"/><path class="cls-2" d="m983.95,676.68l-.17-.18c.05.1.09.18.17.18Z"/><path class="cls-2" d="m983.42,676.11l.36.38c-.07-.16-.14-.36-.36-.38Z"/><path class="cls-2" d="m985.76,682.49h.25c-.06-.02-.14-.02-.25,0Z"/><path class="cls-2" d="m986.24,684.2c-.03-.42.29-1.17-.03-1.7h-.2c.21.08.17.44.12.8-.06.37-.12.74.12.9Z"/><path class="cls-2" d="m984.17,691.61l.12-1.39c-.24.26-.57.58-.66-.03-.67,1.75.55-.39.54,1.41Z"/><path class="cls-2" d="m983.64,695.85c-.05-.74-.37-.02-.51-.08.19.48.24.6.51.08Z"/><path class="cls-2" d="m970.95,723.4l-.4-.45c-.32.47.17.16.4.45Z"/><path class="cls-2" d="m968.89,729.89l.69-.12-.18-.59c-.16.25-.34.48-.52.72Z"/><polygon class="cls-2" points="963.41 729 963.54 728.78 962.95 729.54 963.41 729"/><path class="cls-2" d="m915.03,739.43l.04.76c.41-.07.62-.87-.04-.76Z"/><path class="cls-2" d="m893.69,733c-.04-.44-.46-.94-.98-.82.41.28.71.78.98.82Z"/><path class="cls-2" d="m896.22,681.4l-.21.46c.18-.22.36-.45.55-.66l-.34.2Z"/><path class="cls-1" d="m943.7,783.45c4.77-24.31,45.86-36.23,56.68-20.23,10.83,16,2.01,35.8-12.53,44.15-14.54,8.35-48.93.38-44.15-23.93Z"/><path class="cls-2" d="m945.23,783.75c-.18-.13-.64-.17-.59.1l.73.32-.15-.42Z"/><path class="cls-2" d="m943.56,785.24c.32.36.94.76,1.67.64-.7-.37-.38-.4-1.21-.83-.05-.27.31-.41.59-.33-.18-.12.23-.36-.23-.58-.64.23-.73.68-.31,1.18-.18.07-.37-.04-.51-.08Z"/><path class="cls-2" d="m955.11,807.25l-.11-.16c.02.07.06.12.11.16Z"/><path class="cls-2" d="m970.99,811.98c-.13.01-.19.08-.2.15.12-.04.22-.08.2-.15Z"/><path class="cls-2" d="m973.85,812.93c-.06-.03-.12-.04-.17-.05.07.07.13.11.17.05Z"/><path class="cls-2" d="m955.11,807.25l.29.42c.14-.21-.12-.27-.29-.42Z"/><path class="cls-2" d="m945.28,788.72c-.04-.08-.12-.14-.21-.2.04.07.07.13.09.2.04,0,.08,0,.12,0Z"/><path class="cls-2" d="m948.62,803.52l-.1-.09c-.09.04-.19.09-.3.15l.4-.06Z"/><path class="cls-2" d="m944.7,799.11c.05.13.62-.19.89-.31-.26.09-.42.07-.53,0-.11.07-.22.16-.36.3Z"/><path class="cls-2" d="m942.7,790.1l-.11-.15s.07.11.11.15Z"/><path class="cls-2" d="m951.82,806.2c-.05.09-.08.17-.09.23.05-.07.07-.15.09-.23Z"/><path class="cls-2" d="m948.5,778.79s-.07-.03-.11-.05c.05.05.09.08.11.05Z"/><path class="cls-2" d="m943.54,783.41v-.09c-.13-.03-.25-.07-.37-.09l.37.18Z"/><path class="cls-2" d="m979.32,813.39s-.02,0-.03,0c-.13.09-.05.07.03,0Z"/><path class="cls-2" d="m1007.81,776.69c-.56.6-.8-.86-1.41.03.25-.1,1.06.71,1.41-.03Z"/><path class="cls-2" d="m945.2,788.85c.01.07.02.13.02.2.02-.09.01-.16-.02-.2Z"/><path class="cls-2" d="m1006.41,776.71h0s-.06.09-.06.09c.03-.04.04-.06.06-.09Z"/><path class="cls-2" d="m991.22,808.55c-.09-.08-.18-.13-.27-.17.04.05.11.11.27.17Z"/><path class="cls-2" d="m982.23,811.51l.24.03c-.1-.03-.18-.04-.24-.03Z"/><path class="cls-2" d="m994.49,804.93c.12-.05.21,0,.28-.19-.03-.01-.06-.02-.09-.03.01.11-.02.2-.19.21Z"/><path class="cls-2" d="m997.97,801.45c-.05-.01-.11-.01-.16-.02-.02.04-.05.09-.08.14l.24-.12Z"/><path class="cls-2" d="m956.34,768.61c-.19-.08-.37-.2-.53-.32.35.32-.03.86.53.32Z"/><path class="cls-2" d="m944.92,788.74c.17.02.25.05.29.11,0-.05-.02-.09-.04-.14-.1,0-.19,0-.25.03Z"/><path class="cls-2" d="m991.22,800.9l.56-.39c-.18.08-.38.22-.56.39Z"/><path class="cls-2" d="m985.53,758.69l-.16.06c.06.02.11,0,.16-.06Z"/><path class="cls-2" d="m993.16,799.05c.25.07.43.07.58.03-.02-.06-.03-.11-.07-.18l-.51.15Z"/><path class="cls-2" d="m955.8,768.28h0s0,0,0,0Z"/><path class="cls-2" d="m953.6,772.51c.44-.46-.42-.8-.68-1.24.37-.74.71.18,1.21.3.18-.49-.1-1.32.18-1.56.12.08.2.07.27.26-.11-.88,1.12-1.04,1.02-2.11.08.03.15.07.2.11-.35-.27-.65-.59-.83-.85.22-.21.09-.8.54-.44-.16.11-.02.3.02.49l.09-.4c.73.45-.16.5.22.96.29-.61.49-1.56,1-1.68.56.57-.73.89.21,1.06l-.77.2c1.22.64-.4.2.84.94.88-.38.59-.96,1.47-1.34-.08-.48-.44-.49-.52-.97.7-1.43,2.01,1.05,2.24-.38-.07-.58-.51-1.48.39-1.41l.26.89c.83-.4-.21-1.38.94-1.37.02.4-.48.64-.3.66.89.29.12-.68.56-.91l.48.65c.8-.57,1.5-1.61,2.46-2.19.04.24-.02.54.32.66.53-.49,1.23-.76,1.96-.91.72-.16,1.48-.21,2.18-.19l.25-.82c.11-.03.31.22.23.39.57.07-.12-.42.03-.76.27-.15.49.24.38.5.67-.83,2.15-2,3.28-1.49l-.13.24c.79.09.5-1.58,1.33-1.11l-.11.14c.84,0,1.67-.27,2.48-.39.81-.1,1.59-.13,2.25.33.14-1,1.62.3,1.63-1.08.97.64.71.91,1.99,1.33.34.05.51-.85.94-.99v.72s.59-.73.59-.73l.26.87.4-.17c-.15-.05-.31-.33-.28-.54.66-.3,1.46.64,1.43,1,.5-.17,1-.3,1.5-.41-.08.28-.33.34-.54.49.86-.59,0,.77.79.23-.06-.18.13-.41.17-.55.27.47,1.01.65,1.61.63l-.23.45c.24.09.49.16.75.21.25.07.51.13.77.19.27.06.54.11.81.17.26.09.51.19.76.3-.26-.38.17-1.13.52-1.05l-.21.74c.41-.33-.2-.41.47-.74.37.27-.13.89-.45,1.02l.58-.02c-.08.21-.24.26-.4.51.42-.32.32,1.09.99.52l-.1.2c.47.25.75.47,1.08.62.16.08.32.16.48.24.15.1.29.22.45.36.47-.46.6-.12,1.18-.29.18.29.22.72.33,1.08.1.38.24.69.47,1.08.58.35.56-.15,1.03-.12-.48.36,0,1.08-.59.91.3.42.5.69.76.96.13.14.27.28.45.44.16.17.35.38.59.63.16-.24.19-.44.41-.45.19.18,0,.62-.28.71l-.08-.03c.69.5.7,1.47.58,2.36-.14.91-.27,1.7.5,2.1l-.08-.05c.35.32.64.67.9,1.04,0,.57-.5-.24-.79.24,1.18,1.11.27,2.01.93,3.02-.86.48-.79,1.18-.64,1.94.06.75.2,1.58-.39,2.08l.42-.03c.39.32-.26.32-.36.52.32,0,.39-.27.6-.07.18,2.53-1.45,4.94-2.77,7.03-.44.78,1.84,1.33.42,2.01l-.55-.62c0,1.02-.44,1.89-.89,2.73-.53.8-1.07,1.58-1.23,2.59-.09-.2-.28-.33-.18-.48-.64.03-.87,1.14-.5,1.43-.22.2-.37-.19-.67-.19-.49.11-.02,1.22-.59,1.04-.09-.03-.08-.2-.07-.29.08.39-.8.87-.15,1.1-.7.31-.68,1.19-1.34,1.34.29.79-1.07.62-.44,1.41-.71-.79-1.48.21-1.48.89-.1-.34-.5.01-.66-.44-.34.36-.6.76-.18,1.14-1.51-.43-.87,1.96-2.24.98-.91,1.24-1.89,2.42-2.94,3.18-.42-.98,1.22-.73.62-1.7-.41.49-.66.97-.98,1.43-.34.41-.74.76-1.36.87-.36-.03.02-.48.04-.7-.49.42-1.08.58-1.64.75-.58.14-1.11.31-1.61.71-.02-.1.08-.22.17-.33-.21.08-.54-.05-.41.41l.19-.17c.52.61-.59,1.6-.58,1.97.14-1.42-1.21-.13-.89-1.94-.13.11-.28.36-.2.67-.24-.06-.33-.24-.17-.63-.76.37-.41.83-1.14.93-.02-.23.11-.34.16-.62-.31.51-.65.97-1.3.84.03-.14-.06-.32.13-.33-1.05.18-1.8,1.31-3.02.9.35-1-.41-.34-.46-1.21l-.64.25.25.43c-.56-.01-1.09.59-1.57.27l.44-.33-1.07.1.58.37c-.61.41,0,1.11-.77.81.17-.07-.58-.05-.83-.6h0c-.31.24-.64.5-1.04.24-.07-.29.21-.95.16-1.14-.37.71-1.34,0-1.82.72.15-.16.23-.61.21-.71l-.33.55c-.23-.23-.25-.32-.15-.68-.76-.24.05,1.15-.8.49.08-.03.06-.13.23-.18-.88-.44-1.89,0-2.67-.52-.03-.91.79-.02.69-.81-1.22-.14-2.77.33-3.86-.28l.18.17c-.58,1.11-.64-.89-1.42-.56.18-.03.44-.57.35-.46-.35-.23-.75-.34-1.25-.39-.49-.05-1.08-.05-1.72-.18l.28-.21c-.3-.48-1.08-.71-1.44-1.12-.29.2-.52,0-.6.49-.12-.6-.37-.93-.69-1.15-.3-.23-.69-.33-1.07-.43-.79-.17-1.55-.43-1.63-1.44.14.1.49.04.39-.05-.38-.16-.73-.36-1.09-.56-.3.46-.11.35-.2.84-.33.13-.76.07-.99-.14.66.13.59-.64.63-1.01-.09.15-.27.22-.38.35.21-1.12-.86.71-1.01-.41l.24-.16c-.33-.14-.82-.13-1-.45.37-.52.46.07.86-.25-.36-.32-1.56,0-1.34-.75.27.06.45.31.72.37.27-.85.1-.77-.02-1.12v.04s-.21-.84-.21-.84l-.04.28c-.86.24-1.07-.02-1.26-.3-.18-.3-.33-.63-1-.75,1.29.22.57-.17,1.22-.45.07-.27.14-.65.35-.67-.67-.08.14-.74-.85-.85.19-.11-.14-.37.42-.52-.33-.37-.33.26-.6.33-.49-.2-.43-.72-.41-1.23,0-.51.09-1.05-.58-1.44-.68-.81-1.38-.88-1.93-1.77.32-.35.86.15.86.15.24-.53.16-.88-.11-1.33.2.08.37-.03.62-.18-.08-.36-.84-.21-.53-.72.26.08.67.18.93.34-.24-.41-.68-.83-.84-1.3.4-.1.59.29.84.45-.15-.49-.29-1.29-.91-1.51l-.24.32c-.02-.19.54-.06.65.09.47.46-.25.61-.48.63l-.13-.33c-.68.14-.64.49-.45.87.21.38.61.78.58,1.11l-.98-.24c.28.23.56.44.84.65-.25.16-.78.31-.94-.02-.45.54.34.41-.13.89-.08.06-.13.04-.17,0l.36.45c-.22-.07-.67.17-.57-.15-.41.99.91,1.31.28,1.77l-.08-.06c.63,1.13.73-.02,1.76.63-.52.34-1.03.7-1.54,1.07l.71-.09c0,.13.05.38-.24.43.63.29.27-.17.8-.06-.4.79.84,1.42-.11,1.99.59-.03.13-.69.75-.27-1.03.69.51.57.26,1.32-.63.15-.58-.5-.82.28,1.06-.19.37,1.07.8,1.4.36-.22.57-.05.78.24.22.28.46.67.81.9-.13.07,0,.44.21.89.23.43.53.94.68,1.33l-.12.08c.71-.47,1.14.17,1.67.42-.37.36-.58.44-.96.39l.4.37c.28-.12.5-.11.81.05l-.52.39c.56.47,1.59.32,2.03,1.24.39-.46.45-1.75,1.41-1.53-.16.28-.46.75-.74.72.09.01.39-.06.44.14l-.62.23c.19.42.44-.25.67-.03-.27.37,0,.4-.24.68-.09-.01-.12-.32-.33-.24.25.28.47.75.4,1.13.12-.24.35-.52.6-.41.6.36-.1.6.12,1.02.32-.18.53.33.9-.26.17.11.04.4.02.61.46-.05,1.53.75,1.52-.09l-.06-.08s.04,0,.07,0h0s0,0,0,0c.68-.04,1.16.33,1.64.71.49.37.97.8,1.56.89l-.09.21c.75,0,1.5.4,2.12.1.19.06.32.54.15.78.56,0,.69-.24,1.31.36-.63.22.07.4-.61.12.6.4.66.81,1.55.38-.4.51.32.85.69.77l-.37-.53c.38,0,.68.14.99.27l-.35.71c.6.62,1.34.36,1.99.17.66-.19,1.23-.37,1.65.51.45-.48-.71-.5-.27-1.08.62.21,1.14,1.42,1.36,1.44.86.53.97-1.03,1.87-.64-.1-.28-.14-1.03.56-1.25.62.14.72,1.21.29,1.41-.16.01-.23-.08-.22-.17-.22.09-.51.19-.27.5l.11-.27c.3.3,1.22.33.98.77.52-.23.23-.44-.13-.61.83.47,1.32.05,2.19.35-.14-.16-.26-.48-.13-.48,1.28.36.56-.53,1.41-.67.5.41-.14,1.01.71.63.55.27.15.73-.06.96.78-.54,1.54.24,2.02.31l-.41.26c.25-.15.46-.17.68-.19l-.3-.53c.26.07.47.06.49.29.22-.39-.29-.9.16-1.44.36.23.95-.44,1.16.28-1.07-.1.22.72-.65.96.16-.11.37-.14.64-.08.05.08-.01.16-.08.21,1.12.5.35-.86,1.38-1.04-.06.43.39.73.54.6-.43.08-.33-.64-.01-1.03.72.18.66-.36,1-.42-.14-.01-.28-.03-.42-.06.04-.42.37-.46.78-.7.12.3-.35.32-.15.42.3-.85,1.32.47,1.88-.26.41.16.27.73.62.82.61-.78,1.06.26,1.74-.51-.45-.42-.43-.28-.08-1.01-.39.29-.78.63-1.19.89.2-.34.38-.72.56-1.08-.39.17-.71.65-.98.64.25-.57.25-.42-.09-.79.84.62.86-.87,1.67-.59l.54,1.27c.61.09.96-.32,1.31-.73.37-.41.69-.89,1.31-1.09l-.47.02c-.14-.56.63-.49.86-.9.22.41.53.41.84.55-.21-.27.82-.49.39-1.31.28.07.54.1.81.15.98-.44.14-1.77,1-2.24.08.57.65.55.34,1.24.27-.2.56-.32.36-.57.17.05.25-.21.36-.47.09-.27.2-.53.46-.47-.03-.25-.32-.64-.03-.86.09.04.15.17.15.17-.15-.17.21-.62-.37-.78.85.19,1.35-.31,1.81-.82.42-.55.81-1.09,1.56-1,.36-.64.84-1.36,1.19-1.92.08.12.18.14.07.21.88-.46-.72-1.25.26-1.76.91.03,0,.67.42.58,1.3.77.61-1.08,1.68-1.18l-.02.19c.72-.18.21-1.42.75-2.09,0,0,.09.1.19.12-.32-.88-.07-1.99.1-2.81.42.49.11.47.72.61.09-.37-.91-.34-.74-1.06.4-.07.89-.42,1.51-.21l-.28.64c.91.03.4-.82.66-1.11l.32.19c.29-1.07-.56-1.42-.08-2.46l-.3.02c-.64-.88.69-.31.24-1.12l.93.1c-.1-.48-.46-1.66-.44-2.4.55.56.66,1.5.89,2.15.12-.4.32-1.4-.06-1.72.04.18.2.44.02.57-.58-.69-.69-1.38-.55-2.17,1.73.5.8-2,2.28-2.42-.26-.79-.16-1.51.03-2.29.09-.39.2-.78.29-1.19.05-.41.06-.84.02-1.28-1.36.67-.07-.51-1.49-.34-.11-.39-.1-.54,0-.58.26-.42.53-.85.78-1.29.38-.34.35.35.66.28.03-.92.56-.44.85-1.1-.49.19-.78-.22-.67-.76l-.53.82c-.96-1.11,1-1.28.03-2.42l.51.31c-.3-.61-.62-2.42-1.89-2.69.12-.16.45-.43.63-.18-.07-.39-.25-.78-.46-1.15-.22-.37-.54-.7-.81-1.03-.55-.66-1.01-1.29-.94-1.99l.36-.05c-.21-.22-.78-.17-.66-.64.14-.05.37-.06.32-.19-.19-.08-.93-.37-.94-.8l.51.09c-.19-.77-.7-1.16-1.25-1.45-.28-.14-.56-.28-.84-.42-.31-.14-.6-.3-.85-.52.83-.6.3-1.89-.1-2.45l.12-.09c-.33-.38-.69-.68-1.06-.92-.39-.21-.8-.37-1.2-.5-.79-.3-1.63-.38-2.46-.64-.16-.79-.95-1.25-1.82-1.73-.89-.42-1.88-.78-2.61-1.31.2.25-.27.76-.57.78-.33-.3-1.19.43-.92-.48l.13.05c-.07-.99-.93-.91-1.54-1.03l-.31,1.2c-.63-1.05-1.73-.99-2.69-.89-.97.09-1.81.32-2.23-.51-.39.29-.86.29-1.23.61v-.66c-1.05-.14-1.6-.23-2.89.05l.23-.49c-.75.02-.76,1.97-1.4,2.08l-.31-.95c-.63.1-1.29-.03-1.94-.04-.65,0-1.28.14-1.8.7,0-.15-.03-.43.17-.51-.59.06-2.42-.15-1.89,1.12-.22-.84-1.3.21-1.82.79l-.08-.66c-.32.97-.27,1.19-.95,1.63-.2-.03-.31-.45-.03-.36-.7-.14-.28.71-1.09.63l.13-.49c-.62.17-.5.36-.67.94-.29.38-1.19.25-1.49-.27.04.36-.1.95-.51.93-.13-.19-.05-.37-.01-.46-1.16,0-1.18,1.29-2.1,1.01-.1-.19-.19-.27-.27-.3.78-.35,1.44-.55,1.4-.49-.23-.56-.92-.38-.73-1.36-.36.62-.82,1.92-1.55,1.96-.05-.04-.11-.08-.17-.15l.03-.09c-.17.01-.27.12-.35.27-.24,0-.4,0-.59.08-.3-.42-.84.13-1.16.27.33.57-.12.69.51.97-.07-.02.02-.1.21-.23.04-.04.09-.08.1-.13,0,.02,0,.04,0,.06.19-.12.44-.28.74-.43-.1.41-.22.79-.72.65.04.46.07.93.07,1.16-.83-.59-1.88-.6-2.27-1.03-.72.88-2.05,1.48-1.91,2.91-.16.3-.48-.1-.68-.2.07-.2.25-.3.24-.5-.32.6-1.41,1.1-1.02,1.88-.82.14-.13-.9-.87-.16l-.04-.3c-1.22.08-1.6,1-1.91,1.96-.33.95-.68,1.8-2.09,1.97.19-.03.28-.05.4.03-.59.31-1.11.71-1.55,1.21-.43.5-.82,1.04-1.21,1.57-.73,1.12-1.49,2.15-2.69,2.9-.61.48-.21.84-.07,1.43l-.68-.23.34,1.07c0,.61-.61.79-1.16,1.08-.53.29-1.04.69-.81,1.54l.51.03c-.31.4-.3,1.53-.79,1.26.06.08.41.32.12.42l-.35-.11.21,1.33c-.49.82-1.37-.57-1.78.79,0,.56.7,1.67.99,1.52.07-.19.35-.46.71-.39l.08.47c1.04.31,2.07.78,3.05,0l-.48-.82.56-.08-.1.56c.56-.19.18-.49-.06-.8.28.02.49-.01.62-.11-.27-.3-.52-.62-.77-.94.43.06.71.54,1.07.2-.35-.45-1.01-.01-1.13-.62.58-.15.92.08.65-.43.28.05.42.19.49.37-.22-.44.17-.89-.28-1.27.7-.07.34-1.13,1.25-.66-.18-.2-.49-.9-.35-1.2.81,1.08.64-1,1.72-.22-.79-.94.37-1.53.28-2.51.05.09.15.26.07.28.32-.3.64-.22.98-.3-.71-.58-.46-1.24-.67-1.88,1.02.13.64.92,1.42,1.31-.6-.43-.03-1.17-.61-1.43.67.03.42-.1,1.14.23-.82-.8.1-.4-.2-1.12.81-.06.9.61,1.07-.1.45.02.38.71.38.71Zm11.39-10.5s0,.01,0,.01c-.12.07-.22.13-.28.17.06-.04.14-.09.28-.19Zm1.22-.57c-.16.04-.35.11-.54.21-.14-.19-.19-.42-.06-.47,0,.17.34.15.6.26Zm-4.63-2.85c.16-.19.29-.11.38,0-.09.05-.2.14-.33.26,0,.02,0,.06.01.08-.04-.12-.07-.24-.07-.34Z"/><path class="cls-2" d="m961.6,759.55s-.03.06-.06.09c.07.03.13.05.19.07,0-.08-.02-.15-.02-.22-.04.02-.07.05-.1.07Z"/><path class="cls-2" d="m954.98,807.07l.02.03s-.02-.07-.01-.11c0,.04,0,.06,0,.08Z"/><polygon class="cls-2" points="984.1 758.95 984.1 758.78 983.98 758.93 984.1 758.95"/><path class="cls-2" d="m950.12,800.84c.03-.05.05-.11.05-.18-.03.03-.04.1-.05.18Z"/><path class="cls-2" d="m948.19,798.42l-.07-.48c0,.23.04.37.07.48Z"/><path class="cls-2" d="m947.17,796.3c-.12.03-.2.07-.27.1h0s.27-.1.27-.1Z"/><path class="cls-2" d="m981.06,807.27s.06-.03.08-.05c.17-.18.05-.09-.08.05Z"/><path class="cls-2" d="m969.75,809.38c.14-.1.27-.21.4-.27-.2-.07-.36-.1-.4.27Z"/><path class="cls-2" d="m991.16,800.94s0,0,0,0l.05-.05-.06.04Z"/><path class="cls-2" d="m970.7,809.16c-.2-.14-.37-.12-.54-.05.16.07.36.14.54.05Z"/><path class="cls-2" d="m945.37,786.67l.03-.11s-.08-.01-.1-.02l.07.13Z"/><path class="cls-2" d="m945.3,786.54l-.07-.13c0,.06,0,.11.07.13Z"/><path class="cls-2" d="m945.07,786.13l.15.28c0-.09.03-.2-.15-.28Z"/><path class="cls-2" d="m945.09,789.73h.24c-.05,0-.13,0-.24,0Z"/><path class="cls-2" d="m945.3,790.64c.02-.23.42-.61.23-.89h-.19c.37.09-.46.73-.04.89Z"/><path class="cls-2" d="m943.58,795.45l-.14-.92c-.19.23-.43.55-.64.17-.3,1.36.45-.42.77.74Z"/><path class="cls-2" d="m944.5,798.17c-.36-.37-.32.19-.45.24.37.16.46.19.45-.24Z"/><path class="cls-2" d="m960.49,809.96l-.23.55c.38.03.08-.22.23-.55Z"/><path class="cls-2" d="m964.85,807.97l-.24-.43-.28.49c.17-.01.34-.03.52-.06Z"/><polygon class="cls-2" points="966.17 812.57 965.99 812.63 966.65 812.52 966.17 812.57"/><path class="cls-2" d="m997.81,802.5l-.61-.42c-.07.28.49.89.61.42Z"/><path class="cls-2" d="m1004.89,789.64c.4-.02.78-.34.53-.69-.17.29-.56.5-.53.69Z"/><polygon class="cls-2" points="988.28 753.38 988.62 753.19 988.01 753.29 988.28 753.38"/><path class="cls-1" d="m118.64,258.17s-23.24-150.78,168.51-219.98c191.75-69.2,305.72,29.64,305.72,29.64,0,0,130.06-56.58,235.5-3.23,105.44,53.36,96.31,162.48,96.31,162.48,0,0,96.18,30.01,100.3,121.41,5.34,118.41-68.12,145.84-68.12,145.84,0,0,47.26,92.46-68.26,154.07-115.53,61.62-214,8.71-214,8.71,0,0-28.49,33.87-104.81,40.61-76.32,6.74-115.75-34.49-115.75-34.49,0,0-85.06,62.13-209.27,18.15-124.21-43.99-123.98-116.75-123.98-116.75,0,0-92.48-49.82-92.48-159.06,0-109.24,90.33-147.41,90.33-147.41Z"/><path class="cls-2" d="m119.46,260.1c.63-.41.69-.68.13-.63-.55.04-1.68.4-3.47,1.36-.7.73-1.38,1.49-2.06,2.23,1.78-1.04,3.63-2.08,5.4-2.97Z"/><path class="cls-2" d="m95.15,272.38c-1.81,1.6-3.62,3.48-4.63,4.76-.98,1.32-1.15,2.05.34,1.46,3.09-3.69,4.24-4.04,7.72-7.95,3.29-2.42,6.12-3.63,5.74-2.94,1.05-1.03,5.48-3.1,7.07-4.71-5.02,1.85-10.8,5.45-16.07,10.12-1.36.69-.33-.38-.17-.74Z"/><path class="cls-2" d="m139.22,613.36c-.48-.72-1-1.42-1.44-2.17.33.64.85,1.36,1.44,2.17Z"/><path class="cls-2" d="m364.03,697.21c-1.89.25-2.66.44-2.75.55,1.75-.27,3.18-.51,2.75-.55Z"/><path class="cls-2" d="m406,689.16c-.88.26-1.63.47-2.43.7.95-.2,1.89-.45,2.43-.7Z"/><path class="cls-2" d="m139.22,613.36l1.88,2.77c.62.93,1.32,1.8,1.98,2.71.28.07-.22-.63-1.04-1.67-.83-1.03-1.87-2.49-2.83-3.81Z"/><path class="cls-2" d="m58.78,312.93c.72-1.16,1.34-2.11,1.85-3.03-.63.93-1.23,1.83-1.86,2.76.01.08.02.15.02.27Z"/><path class="cls-2" d="m75.3,530.32l-1.37-1.5c-.49-.36-.98-.68-1.46-.97l2.83,2.47Z"/><path class="cls-2" d="m33.26,457.4c.51,1.86,1.54,2.24,2.12,2.82-.65-.92-1.22-2.23-1.76-3.82-.17.02-.29.31-.36,1Z"/><path class="cls-2" d="m46.05,327.03l1.02-2.15c-.27.56-.71,1.5-1.02,2.15Z"/><path class="cls-2" d="m118.54,568.09c-.11.16-.19.49-.21.83.11-.01.17-.34.21-.83Z"/><path class="cls-2" d="m139.28,165.37c-.03-.09-.11-.02-.15-.06-.13.47-.13.63.15.06Z"/><path class="cls-2" d="m118.41,258.2l-.22-1.34c-.18-.12-.37-.25-.53-.24.25.53.48,1.05.75,1.57Z"/><path class="cls-2" d="m470.27,680.84c-.13-.09-.17-.12-.29-.2-1.85-1.01-.82-.4.29.2Z"/><path class="cls-2" d="m1015.96,433.62c-1.9,3.68-.88.46-.08-2.25.4-1.36.75-2.59.64-2.8-.08-.2-.58.65-1.94,3.41.37-.47-.34,2.25-.63,3.95-.18.83-.24,1.41.05,1.21.14-.1.37-.4.71-.95.32-.57.73-1.4,1.26-2.57Z"/><path class="cls-2" d="m57.5,314.64c-.61.93-1.24,1.87-1.87,2.82.88-1.26,1.45-2.13,1.87-2.82Z"/><path class="cls-2" d="m1014.57,431.99h0s-.55,1.14-.55,1.14c.23-.47.36-.74.55-1.14Z"/><path class="cls-2" d="m645.84,681.78c-.41.02-1.12.22-1.86.43.1.05.53-.02,1.86-.43Z"/><path class="cls-2" d="m513.95,696.55l3.24.83c-1.28-.36-2.32-.62-3.24-.83Z"/><path class="cls-2" d="m703.42,670.9c1.71.59,2.27.88,4.69,1.4-.21-.1-.42-.19-.7-.3-.89-.12-2.06-.36-3.99-1.1Z"/><path class="cls-2" d="m775.06,680.73c-.39-.06-.89-.11-1.34-.16-.72.02-1.56.05-2.3.07l3.64.09Z"/><path class="cls-2" d="m303.55,36.58c-1.55.26-2.56.31-3.36.3,1.24.25-8.61,3.81,3.36-.3Z"/><path class="cls-2" d="m58.35,312.68c-.05.47-.29,1.04-.85,1.97.44-.68.85-1.34,1.26-1.98,0-.25-.07-.36-.41.02Z"/><path class="cls-2" d="m708.16,664.99c1.8.5,3.58,1.04,5.39,1.52l5.43,1.39c-1.51-.4-3.26-.86-5.1-1.35-1.85-.47-3.78-1.05-5.71-1.56Z"/><path class="cls-2" d="m798.49,56.27c-.82-.25-1.64-.49-2.48-.68.95.27,1.82.56,2.48.68Z"/><path class="cls-2" d="m751.81,672.91c1.96.53,4.07.8,6.25,1.06.47-.04,1-.07,1.31-.15-2.53-.3-5.06-.5-7.57-.91Z"/><path class="cls-2" d="m300.16,36.88s.03,0,.03,0c0,0,0,0-.03,0Z"/><path class="cls-2" d="m233.07,68.61c9.3-5.28,3.81-3.49,5.47-5.2.69-.41,1.3-.8,1.88-1.11.58-.3,1.11-.57,1.57-.81.94-.47,1.66-.81,2.23-1.06,1.13-.49,1.62-.58,1.89-.53.53.1.17.78,2.25.07,1.75-.97,3.37-1.93,4.91-2.86.77-.47,1.52-.93,2.25-1.38.75-.42,1.48-.83,2.2-1.23,2.88-1.6,5.55-3.07,8.3-4.26.48,0,1.57-.41.42.36.92-.54,1.97-1.1,3.13-1.68.58-.29,1.17-.6,1.8-.88.64-.27,1.29-.54,1.96-.82,2.69-1.11,5.67-2.28,8.68-3.47,5.98-2.49,12.32-4.57,16.82-6.73.73-.14,1.11-.17,1.32-.14-1.7-.04-2.13-.52-1.95-1.03,2.3-.79,4.38-1.69,6.13-2.37,1.75-.68,3.21-1.04,4.19-.95-2.86.82-3.02,1.16-4.26,1.85,1.56-.68,3.18-1.19,4.77-1.79,2.36-.12.72.46-1.48,1.16-2.21.66-4.91,1.68-4.79,2.04,1.16-.43,2.33-.92,3.54-1.33,1.21-.42,2.43-.84,3.66-1.27,2.45-.85,4.92-1.71,7.32-2.55,1.2-.41,2.39-.81,3.55-1.2.58-.19,1.16-.38,1.72-.57.57-.16,1.14-.32,1.69-.47,2.23-.6,4.31-1.12,6.17-1.5.9.33-3.38,1.49-6.63,2.37-3.23.95-5.41,1.69-.43.74l-11.37,2.89c9.07-.9-6.86,1.89,1.54,1.31,3.71-1.01,6.59-1.85,9.05-2.6,2.48-.69,4.55-1.27,6.62-1.85,2.07-.58,4.14-1.17,6.62-1.82,1.25-.31,2.59-.65,4.1-1.03,1.52-.29,3.2-.61,5.08-.97,3.27-1.27-1.3-.63,1.97-1.91,10.6-2.83,15.03-2.6,18.64-2.61,1.81.03,3.44.07,5.59-.14,2.16-.17,4.85-.48,8.78-1.31,2.02-.6,3.39-1.28,5.7-1.89,2.3-.61,5.56-.94,11.3-1.04l-3.8,1.5c3.71-.25,6.09-.52,7.82-.8,1.73-.26,2.8-.45,3.9-.67,2.2-.4,4.5-.82,12.32-.56-2.77.45-11.7.76-9.44.8,5.06.31,6.84.07,8.33-.25,1.49-.28,2.69-.68,6.59-.65l1.6,1.09c15.82.02,33.34.68,50.72,3.53-1.02.15-4.03-.02-.04.99,10.93,1.65,22.49,4.25,33.63,7.83,11.16,3.51,21.95,7.81,31.56,12.32,2.6.8,5.22,1.58,7.79,2.49,1.71.82,2.99,1.88,1.07,1.17,3.67,1.92,3.82,1.87,3.54,1.46-.28-.4-1-1.13.86-.4,4.24,2.09,5.32,3.3,2.53,2.2,4.74,2.07,10.77,5.06,17.01,8.64.78.45,1.57.9,2.36,1.36.78.48,1.56.96,2.34,1.44,1.58.95,3.12,1.98,4.67,3,1.53,1.03,3.05,2.08,4.51,3.17l1.09.81.54.41.62.48c1.12.87,2.21,1.8,3.28,2.7,5.02-2.12,6.84-2.74,9.58-3.7,2.56-.88,4.98-1.63,7.18-2.23l-2.76,1.25c5.74-1.82,8.83-3.32,11.85-4.7,1.51-.69,3-1.37,4.82-1.99,1.81-.63,3.92-1.25,6.69-1.78l-2.03.74c6.34-1.71,12.87-3.36,19.41-4.9,6.56-1.48,13.12-2.9,19.54-4,12.83-2.27,25.04-3.55,35.04-3.58.92-.4,3-.67,5.63-.9,2.63-.16,5.8-.22,8.9-.31,6.21-.03,12.14-.04,13-.89,3.74.34,6.26.56,8.28.83,2.01.3,3.52.53,5.22.78,1.7.27,3.59.43,6.34.88,1.38.2,2.97.43,4.87.7.95.13,1.97.27,3.08.43,1.1.19,2.3.4,3.58.63,2.75.45,4.86.41,7.13.48,2.26.09,4.71.19,8.13.73l-.03.98c3.13.28,6.23.74,9.37,1.11.76.39,1.53.74,2.28,1.15l2.24,1.25,6.28,1.55c-2.46-.77-5.14-1.93-4.69-2.09,1.23.3,2.53.64,3.85,1,.66.19,1.32.38,1.99.57.66.21,1.32.46,1.98.7,2.63.96,5.22,1.97,7.5,2.9,4.5,2.06,7.74,3.86,7.76,4.12.93.35,1.88.66,2.79,1.04l2.74,1.18,5.48,2.35,1.37.59,1.34.66,2.67,1.33,5.36,2.66c-.66.09-4.25-1.7-7.14-2.97,5.83,2.59,6.23,3.09,6.48,3.53.27.43.37.85,5.57,3.49-1.21-1,1.02-.05,1.36-.08.58.44,1.27.94,2.04,1.47.77.54,1.57,1.2,2.46,1.85,1.77,1.32,3.81,2.78,5.94,4.3,2.06,1.63,4.23,3.31,6.38,4.94,1.1.79,2.09,1.69,3.1,2.52,1,.84,1.98,1.65,2.92,2.43l-1.85-.72c3.36,2.83,6.51,6.06,9.84,9.23,1.57,1.68,3.16,3.37,4.76,5.08.4.43.81.85,1.2,1.29l1.14,1.35c.76.9,1.53,1.81,2.3,2.71,6.1,7.31,11.74,15.38,16.49,24.03-1.51-3.21-2.01-4.51-1.55-4.49.42.04,1.7,1.46,3.1,4.02l.21,2.54c2.36,3.01-2.56-5.54,1.81.9,3.2,6.74,1.14,4.99-.99,1.33l2.12,3.96c.71,1.32,1.43,2.64,2.06,4.01-.08.61-1.04-1.27-1.64-1.59.54.76,1.1,2.08,1.74,3.66.64,1.58,1.34,3.44,1.94,5.39,1.34,3.85,2.53,7.94,3.93,10.28l-.14.58c2.95,9.41,4.56,16.42,5.87,23.01,1.26,6.6,2.19,12.82,2.71,20.84.93.26,1.07,6.57,1.67,11.37-.02.43-.04.87-.06,1.31-.02.53-.07,1.08-.11,1.63-.09,1.11-.18,2.24-.28,3.39,1.03.36,2.07.72,3.11,1.09.53.18,1.05.38,1.57.58l1.29.51c1.27.53,2.54,1.08,3.83,1.66,2.57,1.16,5.17,2.41,7.79,3.75,5.25,2.68,10.61,5.67,16.06,8.93,2.21,1.2,3.48,1.89,4.21,2.26.74.36.96.39,1.03.32.14-.14-.29-.67,1.76.34.1.52,3.1,2.82,5.23,4.54,2.11,1.76,3.41,2.88.27.91,3.48,2.5,6.22,4.68,8.69,6.7,1.22,1.03,2.38,2.01,3.52,2.97,1.11,1,2.2,1.99,3.31,3,1.14.99,2.23,2.08,3.4,3.22,1.17,1.14,2.43,2.33,3.69,3.71,1.27,1.38,2.73,2.79,4.15,4.52,1.45,1.7,3.09,3.51,4.71,5.68-.57-1.04-1.19-2.14-1.59-2.82-.41-.68-.53-.99.02-.54,2.52,3.06,5.04,7.44,4.36,7.21l-.64-.82c.89,1.23,1.78,2.49,2.68,3.79.44.65.91,1.29,1.32,1.97.4.69.81,1.38,1.22,2.08.79,1.41,1.67,2.79,2.39,4.28.71,1.49,1.43,2.99,2.16,4.5.38.75.69,1.52.99,2.31l.92,2.35c.61,1.57,1.25,3.13,1.71,4.76.5,1.61,1,3.22,1.5,4.83.42,1.63.79,3.27,1.18,4.88.19.81.39,1.61.58,2.42.16.81.28,1.63.43,2.43.28,1.61.56,3.21.84,4.79.23,1.58.37,3.17.56,4.71.09.77.19,1.54.28,2.3.11.76.19,1.51.22,2.27.11,1.5.21,2.98.32,4.42.12,1.44.27,2.84.3,4.24.14,2.79.33,5.42.6,7.86l-.11-1.09c.38,6.74.5,13.5.33,20.27-.15,2.33-.34,3.13-.4,3.15-.08.01-.07-.76-.11-1.62-.1-1.71-.23-3.72-.67-.31-.21,10.9-1.68,19.43-3.46,27.32-.5,1.96-1,3.89-1.49,5.82-.47,1.94-1.12,3.81-1.66,5.75-.28.97-.56,1.94-.85,2.92-.32.97-.64,1.95-.97,2.95-.64,1.99-1.24,4.06-2.01,6.15-1.81,3-3.91,7.27-6.54,12.08-2.55,4.85-5.72,10.19-9.33,15.4-3.61,5.21-7.73,10.26-12.02,14.52-4.27,4.27-8.69,7.76-12.59,10.12l1.18-.17c-.88.8-1.61,1.41-2.28,1.87-.68.45-1.27.77-1.84,1.06-1.14.58-2.22.94-3.72,1.78.65.15,4.59-2.27,2.28-.45-1.54,1.02-3.12,1.98-4.75,2.88l-.61.34-.82.43c-.73.38-1.5.76-2.3,1.09-1.58.69-3.26,1.37-4.88,2.02.88,1.87,1.92,3.81,2.71,5.69l.63,1.42.26.65.16.4c.21.54.43,1.07.62,1.61.79,2.17,1.54,4.38,2.17,6.63,1.3,4.49,2.3,9.1,3.01,13.76.66,4.67,1.04,9.39,1.11,14.12-.02,4.73-.19,9.47-.89,14.14-1.24,9.37-3.81,18.54-7.71,27.09-3.86,8.56-8.9,16.52-14.72,23.79-2.45,2.85-3.88,4.8-4.85,6.34-1.06,1.48-1.66,2.56-2.37,3.72-.72,1.14-1.51,2.41-3.12,4.11-.83.82-1.84,1.77-3.12,2.88-.65.55-1.35,1.15-2.13,1.81-.39.32-.8.66-1.23,1.01-.45.32-.93.66-1.42,1.01,1.23-1.38,2.3-2.92,3.41-4.39-2.64,2.79-5.68,5.19-8.62,7.74-1.45,1.3-3.07,2.4-4.62,3.58-1.57,1.16-3.15,2.32-4.73,3.49-3.28,2.16-6.59,4.3-9.94,6.39-3.44,1.94-6.86,3.92-10.33,5.8-14,7.4-28.56,13.44-42.94,18.49.83-.38,1.24-.64,1.79-.92.54-.3,1.23-.62,2.64-1.11-.79.17-1.73.43-2.77.73-1.06.26-2.22.58-3.43.93-2.43.68-5.06,1.57-7.52,2.31-4.94,1.41-9.09,2.83-9.08,3.12-4.66.9-1.2-.32-4.12-.03-1.6.22-3.37.6-5.19,1.04-1.83.38-3.71.79-5.5,1.2-1.79.39-3.49.81-4.97,1.01-1.48.2-2.73.31-3.6.23-.59-.05,1.76-.47,2.92-.67-1.03.22-2.75.48-4.7.74-.97.13-2,.27-3.03.4-1.03.1-2.05.19-3.01.28-3.84.37-6.66.71-4.62.98-11.4.4-21.86,1.11-30.94.06-1.5.13-3.47.18-5.61-.02-2.14-.18-4.44-.43-6.62-.68-4.35-.61-8.19-1.11-9.22-.61.51-.66-4.41-1.62-10.29-2.82-5.89-1.19-12.76-2.58-16.33-3.26,1.22.11-.26-.41-1.69-.94-1.43-.51-2.78-1.11-1.35-.98-7.9-2.24-15.03-4.63-13.94-3.44-2.83-1.42-5.72-2.68-8.54-3.91-1.41-.61-2.81-1.21-4.18-1.8l-1.19-.52c-.62-.28-1.22-.57-1.83-.87-1.19-.58-2.38-1.16-3.55-1.73-1.23,1.41-2.44,2.9-3.66,4.13-.41.42-.81.83-1.21,1.24-.34.33-.68.66-1.02.98-1.31,1.32-2.74,2.45-4.05,3.54-1.36,1.04-2.7,1.94-3.97,2.73-1.29.75-2.58,1.32-3.77,1.73-.61.43-1.22.88-1.84,1.29l-1.9,1.2c-1.27.79-2.51,1.61-3.78,2.37-1.3.73-2.59,1.45-3.87,2.18l-1.93,1.08c-.64.36-1.31.66-1.97.99-5.22,2.67-10.54,4.98-15.89,7.03-10.68,4.17-21.59,6.93-32.42,9.12.13-.4,1.71-.79,3.95-1.36,2.23-.6,5.15-1.27,8.01-1.92,2.88-.59,5.61-1.5,7.6-2.14,1.98-.67,3.16-1.2,2.83-1.5-2.48.78-4.83,1.52-7.08,2.23-2.26.7-4.47,1.21-6.58,1.8-2.12.56-4.17,1.15-6.21,1.64-2.05.43-4.07.86-6.08,1.29-2.02.41-4.03.85-6.09,1.23-2.08.29-4.18.58-6.36.88-2.18.29-4.43.56-6.78.83-2.35.17-4.81.33-7.4.45-2.69,0-1.93-.19-.28-.4,1.65-.23,4.18-.61,5.07-.78-10.36,1.07-20.47.96-30.18.06-9.71-.98-19.04-2.66-28.04-4.81.04-.06.55.03,1.28.16.73.12,1.69.3,2.61.48-.88-.23-1.83-.47-2.76-.71-.92-.27-1.81-.53-2.58-.76-1.55-.42-2.64-.65-2.53-.29l3.46.84c1.33.63,1.1.82-.02.73-1.11-.1-3.14-.39-5.32-.9-4.4-.91-9.47-2.54-9.87-2.44,3.26.28-1.03-1.46-4.73-3.32-3.7-1.88-6.86-3.7-1.93-2.64-2.23-.87-5.01-2.02-4.73-1.37-3.1-1.77-3.94-2.55-.56-1.26-5.81-2.9-7.67-3.88-9.45-4.71-1.73-.9-3.41-1.64-8.14-5.17.22-.22,2.2,1.1,3.41,1.5-1.81-1.03-3.61-2.09-5.49-3.37-.93-.64-1.89-1.33-2.87-2.09-1.32-1.06-2.86-2.48-4.33-3.93-1.41.99-2.93,2.13-4.58,3.16-.3.19-.61.38-.92.58-.3.18-.6.36-.9.54-.61.36-1.24.74-1.91,1.1.42-.48-.68-.07,1.85-1.62-7.3,4.52-13.73,8.18-20.54,11.57-6.82,3.37-14.06,6.46-23.25,9.06,2.47-1.51.89-1.12-1.46-.46-2.36.63-5.53,1.45-6.16,1.03-1.61.55-3.25.98-4.88,1.47-1.63.47-3.26.98-4.91,1.39,1.38-.09,2.75-.26,4.12-.41-2.17.55-4.28,1.09-6.34,1.61-1.03.27-2.04.54-3.05.8-1.01.26-2.01.47-3,.71-1.99.44-3.93.92-5.87,1.25-1.94.32-3.87.6-5.79.79l6.51-1.49-8.28,1.37-8.33,1.08c3.16-.21,6.34-.41,9.5-.68-4.47.89-4.19,1.19-4.27,1.47-.04.13-.18.25-1.05.4-.44.07-1.06.16-1.94.25-.89.1-2.04.22-3.54.28,1.21-.16-1.04.02-4.19.2-3.14.24-7.19.17-9.55-.05h.03c-2.22.32-4.48.49-7.02.61-1.27.06-2.61.1-4.05.11-1.44,0-2.98-.11-4.64-.23-1.72-.43,1.43-1.25.31-1.54-1.1.21-2.97.29-5.23.3-2.27-.02-4.93-.22-7.63-.37-2.7-.11-5.43-.42-7.84-.6-2.41-.19-4.5-.24-5.92-.18,1.87,0,2.05-.62,1.46-.81-1.26.15-2.5.17-3.75.26-4.09-.89-4.66-1.11-3.92-1.49-1.54-.26-2.64-.42-3.41-.51-.77-.1-1.21-.15-1.44-.13-.46.03-.07.28.24.51.64.44.99.77-6.26-1,1.16.16.64-.06,3.05.29-14.58-3.17-28.24-6.2-41.1-11.15-1.7-1.27,1.13-.25,3.93.58,2.79.87,5.5,1.74,3.46.54-2.35-.76-4.74-1.46-7.11-2.26-2.37-.82-4.76-1.64-7.15-2.47-1.2-.41-2.4-.83-3.6-1.24l-3.57-1.35c-2.38-.9-4.77-1.78-7.14-2.71-9.41-3.83-18.59-8.09-26.87-12.92l3.07,1.82c-.78.05-1.94-.4-3.36-1.17-1.42-.78-3.06-1.95-4.89-3.22-.91-.64-1.87-1.31-2.86-1.99-.97-.7-1.97-1.43-2.98-2.16-1.02-.72-2.05-1.43-3.1-2.1-1.06-.66-2.11-1.32-3.14-1.96,1.99,1.29,3.08.98,2.44.8-2.64-1.91-5.32-3.84-8.09-5.85-2.71-2.08-5.6-4.15-8.48-6.55-5.83-4.72-12.16-10.23-18.72-17.66.64.53,1.25,1.09,1.9,1.6-1.17-1.53-2.53-3.29-4-5.15-.7-.96-1.43-1.95-2.17-2.96-.37-.5-.75-1.01-1.12-1.52-.35-.53-.71-1.05-1.07-1.58-2.94-4.18-5.52-8.69-7.36-12.38-.73-1-1.67-2.53-2.22-3.52-.57-.98-.89-1.35-.58.1-1.71-4.74-3.22-9.4-4.45-14.04-.62-2.32-1.15-4.62-1.6-6.92-.21-1.15-.42-2.3-.57-3.44-.05-.29-.08-.57-.11-.85l-.12-1.17c-.05-.83-.1-1.67-.13-2.49-1.11-.61-2.21-1.23-3.32-1.84-.78-.45-1.57-.89-2.35-1.36-1.56-.92-3.09-1.86-4.61-2.83-3.04-1.92-5.96-3.97-8.82-6.06-5.67-4.25-10.94-8.9-15.53-14.11,1.98,1.88,5.02,4.12,3.42,2.66-4.86-4.25-9.54-8.72-13.96-13.44.25.81.6,1.36,1.18,2.12.57.78,1.39,1.75,2.62,3.41-.51-.37-1.14-.88-1.87-1.49-.71-.62-1.49-1.36-2.31-2.16-.82-.8-1.69-1.66-2.55-2.56-.83-.92-1.67-1.85-2.45-2.78,6.09,6.35.8-.81-1.27-3.97.22.64-.78-.22-.75.17-2.67-4.38-3.22-4.47-4.08-4.94-.43-.23-.94-.55-1.83-1.54-.87-1-2.18-2.63-3.93-5.66l.73.39c-1.55-2.09-3.14-4.04-4.58-6.15-1.48-2.09-2.97-4.24-4.29-6.73-.21-1.22.56-.07,1.48,1.39.89,1.47,2.1,3.14,2.47,3.12-4.14-6.63-9.21-12.7-11.37-19.61.83,1.46,1.66,3.33,2.67,5.1.99,1.79,1.98,3.57,2.85,5-1.32-3.69-2.2-5.65-2.93-7.42-.72-1.77-1.44-3.26-2.57-5.9l.22.52c-.86-2.03-1.55-4.14-2.33-6.21-.37-1.04-.78-2.06-1.11-3.12l-.99-3.16.86,3.27c-1.32-2.12-2.43-4.36-3.42-6.72-.92-2.38-1.66-4.89-2.44-7.5-.42-1.3-.69-2.66-1.04-4.04-.34-1.38-.69-2.79-1.07-4.23-.42-1.43-.72-2.93-1.1-4.46-.38-1.53-.8-3.09-1.29-4.7,3.71,12.46,1.17,1.95,2.29,2.76-.16-1.68-.48-3.78-.52-5.31-.06-1.52-.04-2.45.19-1.75-1.62-6.07-.73-10.33-2.24-19.02.3-.41-.15-6.66.66-5.27-.14-2.02-.14-2.91-.21-3.12-.06-.21-.15.26-.24.96-.15,1.4-.23,3.74-.44,3.4-.68-6.24-.08-13.63.91-21.58.23-1.99.64-4,.93-6.06.32-2.06.59-4.16,1.03-6.26.4-2.11.76-4.25,1.09-6.43.44-2.15.85-4.34,1.21-6.57.34-1.91.82-3.58,1.18-5.13.36-1.55.69-2.96.99-4.27.69-2.6,1.27-4.8,1.84-6.97,1.24-4.31,2.51-8.51,5.49-15.17.63-1.06.96-1.3.99-1.12.04.18-.16.82-.4,1.6-.5,1.55-1.31,3.62-1.31,3.62,3.72-6.95,6.63-12.06,10.31-18.52-.61,1.4.44.23,1.98-1.45,1.59-2.5,1.97-3.44,2.52-4.56.28-.56.6-1.16,1.17-1.99.57-.84,1.37-1.92,2.7-3.37-.28.63-.6,1.35-1,2.25-.39.91-.88,1.96-1.58,3.21,1.89-2.93,3.92-5.73,5.95-8.6,1.07-1.39,2.14-2.79,3.23-4.19,1.09-1.41,2.29-2.74,3.47-4.12.85-.52.25.42-.75,1.75-.51.65-1.1,1.42-1.66,2.14-.54.75-1.04,1.46-1.39,1.99,2.54-3.16,6.1-7.01,9.23-10.33,1.58-1.64,3.06-3.14,4.2-4.4,1.18-1.22,2.04-2.19,2.38-2.76-1.38,1.07-2.79,2.11-4.13,3.24,2.16-2.05,1.61-.49.11,1.1-2.36,2.58-4.15,4.33-5.49,5.37-1.35,1.04-2.15,1.48-2.4,1.51,1.11-1.33,2.34-2.54,3.5-3.81-1.24.63-2.85,1.82-4.49,3.53-.83.84-1.71,1.79-2.61,2.8-.9,1.02-1.76,2.15-2.68,3.3-1.85,2.27-3.56,4.86-5.33,7.28-.84,1.25-1.66,2.47-2.46,3.66-.81,1.18-1.62,2.29-2.33,3.38.42-1.47.95-2.87,1.45-4.31l-1.37,2.33c-.44.79-.85,1.59-1.27,2.38-.83,1.6-1.71,3.15-2.48,4.77-1.45,1.77-2.92,2.73-.37-1.8-4.48,6.11-3.11,5.89-6.8,11.25-.44.58-.34.26-.07-.34-1.1,2.2-1.98,4.51-2.93,6.78.37-1.42-1.37.72.76-3.3-1.59,2.92-2.97,5.59-3.92,8.14-1,2.52-1.87,4.78-2.45,6.87-.63,2.07-1.17,3.89-1.72,5.46-.48,1.6-.96,2.96-1.56,4.08l.24-1.09c-.61,2.22-1.06,3.92-1.38,5.21-.26,1.31-.41,2.22-.5,2.84-.17,1.24-.05,1.35.12,1.32.17-.02.4-.18.45.52.03.35,0,.91-.08,1.81-.08.9-.3,2.12-.44,3.83l-2.01,4.31c-.67,1.45-1.37,2.9-1.93,4.39l.72,1.93c-.28,1.87-.84,5.58-1.14,4.85.02,7.09.49-1.15.77,2.98-.39,2.24-.7,4.93-.93,7.74-.1,2.81-.14,5.72-.2,8.42-.06,1.35,0,2.64.01,3.84.02,1.2.02,2.3-.01,3.26-.06,1.93-.23,3.33-.6,3.86.82,3.23.31-8.73,1.12.96-.71,1.42-.42,4.24.04,7.71.19,1.74.62,3.63.92,5.61.33,1.98.53,4.06.69,6.14-1.25-2.38-1.8-10.32-1.46-1.91.49,1.2.97,2.79,1.36,4.62.39,1.83.69,3.91.99,6.05.82,4.24,1.42,8.82,2.65,12.15.3,0,.75.91,1.31,2.45.27.77.59,1.7.95,2.74.38,1.04.79,2.19,1.24,3.43.44,1.24.9,2.57,1.39,3.94.52,1.36,1.11,2.76,1.68,4.18.59,1.42,1.15,2.87,1.79,4.27.66,1.39,1.33,2.76,1.99,4.08-.16-.13.29,1.09,1.16,3.13.96,2,2.27,4.87,3.9,7.99,3.22,6.26,7.75,13.48,10.75,18.12l-.34-.16c1.07.55,3.28,3.12,5.86,6.34,1.32,1.59,2.76,3.32,4.21,5.06,1.49,1.69,2.98,3.39,4.37,4.91-.74.22-1.9-.73-5.06-3.94,1.71,1.96,3.34,3.98,5.12,5.88,1.53,1.1,3.25,2.81,6.89,6.3l-1.98-.8c7.29,7.43,15.65,13.82,25.99,22.24.54-.1-1.24-2.14-1.7-3.15-.23-.5-.13-.75.74-.37.88.37,2.49,1.4,5.41,3.3.17.66.16,1.57-2.92-.43,1.01.66,3.68,2.21,5.57,3.71-1.67-.85-3.35-1.71-5.01-2.62,2.35,1.91,3.12,2.2,3.74,2.42.63.21,1.15.31,3.14,1.67-.43.48,2.78,2.31,1.93,2.35-1.09-.61-3.43-2.5-5.09-3.36,1.55,1.1,3.22,2.28,4.8,3.4.77.54,1.52,1.06,2.22,1.55.43.33.84.61,1.11.88-.05.45-.08.82-.13,1.13-.02.16-.04.3-.06.43-.02.23-.03.43-.05.61.33-.54.75-.06,1.52,3.93,1.04,5.14,1.23,6.01,1.07,6.42-.11.39-.5.3.27,3.29.3.58.6,1.43.97,2.35.36.92.75,1.93,1.12,2.88.8,1.85,1.57,3.4,2.03,3.29,1.23,2.79,1.09,3.48,1.35,4.67,1.38,2.35,4.33,7.95,7.11,11.96,2.77,4.01,4.9,6.69,3.57,3.92l-.72-1.17c.16.21.34.45.53.7l-.02-.04.02.04c5.39,6.94,11.22,13.92,17.62,20.38,6.38,6.47,13.31,12.4,20.5,17.29l-.2.24c8.63,5.79,19.5,12.41,26.38,15.22,1.33.76,2.88,1.69,3.92,2.41,1.04.73,1.58,1.26.91,1.13,3.61,1.65,5.61,2.56,8.06,3.57,1.21.52,2.52,1.11,4.16,1.89,1.64.78,3.6,1.79,6.21,2.97-3.79-1.26-3.19-.92-2.92-.74.27.17.24.12-4.72-2.18,2.33,1.11,4.16,2.1,5.85,2.85,1.67.77,3.14,1.43,4.63,2.08s3.03,1.26,4.84,1.94c1.84.62,3.97,1.27,6.63,2.04-1.9-.28-.17.63,2.62,1.8.7.29,1.46.61,2.26.9.81.27,1.63.56,2.45.83,1.63.54,3.2,1.02,4.38,1.35l-6.68-2.81c2.64.81,5.09,1.61,7.47,2.41,1.19.4,2.35.8,3.52,1.2,1.16.39,2.34.71,3.51,1.07l-2.85.27c2.5.88,4.96,1.67,7.39,2.4,1.21.36,2.41.71,3.6,1.03,1.21.27,2.4.54,3.58.81,2.36.51,4.68.98,6.96,1.43,2.28.4,4.54.69,6.75,1.03,8.83,1.36,17.04,2.07,24.96,4,5.63-.09-11.37-1.82-6.29-2.1,2.41.31,4.83.71,7.16,1.14,2.34.34,4.59.7,6.64,1.05,4.09.76,7.4,1.13,8.93,1.21,1.67.13,3.12.21,4.4.25,1.28,0,2.4-.05,3.41-.11,2.02-.12,3.6-.33,5.19-.54,1.59-.21,3.2-.53,5.28-.74,2.08-.23,4.63-.35,8.11-.57-1.82-.25-3.52-1.04,6.75-2.33,4.81-.49,7.82-.44,8.86-.22,1.05.24.16.88-2.88,1.4-2.32.3-3.45.32-3.37.18-1.56.24-3.35.55-4.28.74-.93.17-.99.35.96.36l1.22-.52c4.86-.03,18.13-2.2,15.12-1.1,3.6-.86,4.35-1.15,3.52-1.13-.83,0-3.22.41-5.94.69,6.22-.73,11.03-1.71,15.83-2.83,4.81-1.12,9.62-2.44,15.86-4.09-2.03.37-3.96.47-2.01-.09,9.1-2.52,10.97-3.52,12.13-4.18.58-.34.97-.63,1.96-1.12.98-.51,2.56-1.23,5.52-2.41,3.45-1.12,2.99-.56,3.11-.39.11.15.88.02,6.66-2.84,3.65-1.48,4.13-1.46,3.37-.83-.76.63-2.79,1.85-4.17,2.61,5.24-2.74,10.22-5.11,14.62-7.28,2.2-1.09,4.26-2.12,6.13-3.13.47-.25.93-.5,1.37-.74.22-.13.44-.25.66-.37.14-.09.14-.07.16-.08l.06-.02c.15-.04.25-.07.35-.12-.12.14-.2.26-.29.37-.01.01.01,0-.04.03l-.16.12-.33.23-.65.45-1.31.89c.54-.37,1.07-.72,1.59-1.07.26-.17.51-.34.76-.51.17-.11.16-.11.17-.12l.04-.04c.09-.09.19-.18.29-.24.08.08.17.15.25.23,0-.27-.04-.58-.18-1-.03-.05-.08-.06-.12-.09.05-.02.1-.06.14-.06.14.17.28.33.4.48.07.07.13.14.19.21l.08.1.02.03.08.08.16.15c.81.77,1.29,1.27,1.17,1.36,1.65,1.04,1.27.32,1.28-.1.01-.44.38-.52,3.56,1.49,1.82,1.64,4.92,3.71,7.73,5.46,1.39.9,2.73,1.68,3.76,2.41,1.04.69,1.79,1.27,2.03,1.7-6.55-4.02-6.24-3.73-5.82-3.04.45.63,1.08,1.58-4.43-2.02,2.13,1.37,4.74,3.03,7.87,5.04.43.37-.56-.08-1.45-.57,3.07,2.11,5.07,3.23,6.5,3.92,1.41.71,2.28.91,3.16,1.15.88.23,1.77.44,3.33.97,1.55.55,3.74,1.43,7.26,2.9-1.01-.1-.29.47.99,1.17.64.35,1.41.73,2.18,1.08.77.33,1.53.61,2.13.8-2.91-1.04-3.49-1.59-2.7-1.57.78.03,2.99.45,5.7,1.2,9.13,3.47,10.23,2.76,15.13,4.09l-5.58-1.63c1.02-.02,2.71.28,4.95.78,1.13.23,2.4.48,3.81.76.7.14,1.44.28,2.21.43.77.12,1.57.25,2.41.39.24.27-1.28.06-2.57-.13-1.28-.23-2.34-.45-1.18-.1,1.88.17,3.86.42,5.92.86,2.06.4,4.23.82,6.49,1.32,2.27.39,4.64.86,7.1,1.15,2.47.25,5.02.51,7.64.4,4.84.56.43,1.09,4.71,1.47,2.96-.19,5.23-.17,7.17-.21,1.94-.04,3.56,0,5.2.06,1.64.04,3.3,0,5.32-.09,1.01-.06,2.12-.09,3.34-.26,1.22-.16,2.58-.35,4.1-.6-3.61-.35-4.19-.09,4.33-1.8-3.34.46-6.67.97-10.02,1.38-3.37.32-6.74.69-10.13.84l3.25-.38c1.08-.13,2.16-.32,3.23-.48,2.15-.35,4.3-.62,6.42-1.09-.76.09-1.52.18-2.29.27-.77.07-1.55.14-2.32.21-1.54.16-3.07.32-4.52.47-2.91.2-5.52.39-7.35.37,6.18-.79,5.53-.61,2.6-1.13,4.18.47,8.31.02,12.56-.56,4.24-.7,8.61-1.43,13.42-1.64l-.03,1.89c3.62-.39,7.02-.92,10.37-1.52.84-.15,1.67-.3,2.5-.47.83-.21,1.65-.42,2.48-.62,1.65-.43,3.32-.87,5.02-1.31.85-.22,1.7-.45,2.57-.68.87-.22,1.74-.46,2.62-.75,1.76-.55,3.57-1.11,5.46-1.7,3.8-1.05,7.8-2.52,12.32-3.91l-5.86,1.63c1.09-.76,3.83-1.71,7.03-2.75,3.13-1.23,6.73-2.5,9.47-3.85-.27.81,3.3-.58,5.86-1.34-.12-.08.61-.45,1.78-1.06,1.16-.64,2.74-1.51,4.38-2.41.81-.46,1.65-.9,2.43-1.39.77-.5,1.5-.99,2.14-1.45,1.29-.92,2.23-1.71,2.43-2.19,1.29-.6,2.51-1.31,3.78-1.96,1.26-.66,2.53-1.33,3.74-2.08,3.04-2.08,5.3-3.99,7.13-5.77.45-.45.88-.89,1.3-1.31.21-.21.41-.43.6-.65l.29-.32.12-.17c.32-.44.63-.91.97-1.44.5.08,1.08.27,1.75.44.11.02.46.15.72.24.28.1.56.2.85.3.57.2,1.16.41,1.77.62,2.44.87,5.21,1.92,8.76,3.3-2.18-.45-1.76,0-1.95.2-.19.18-1.02.16-5.67-1.52,4.52,1.93,8.64,3.53,8.86,3.16,1.28.67,4.54,1.63,8.02,2.54,1.74.46,3.52.94,5.14,1.38,1.61.47,3.05.91,4.1,1.34,2.06.26,2.86-.12,8.16,1.2.55.26-.09.29-.09.29.08-.23,8.43,1.45,3.93-.23,7.07,2.6,17.44,4.41,27.62,5.37,2.55.2,5.08.47,7.55.62,2.47.14,4.88.3,7.17.46,4.59.18,8.71.52,11.98.85,2.66-.08,5.46-.13,8.3-.35,2.84-.2,5.74-.31,8.59-.64,1.43-.14,2.85-.28,4.25-.42,1.4-.13,2.79-.27,4.13-.47,2.7-.36,5.29-.7,7.68-1.02-.59.26.01.31-1.81.47,13.26-1.52,7.82-2.84,22.68-5.4,3.85-.46,1.95.17-.34.8-2.29.62-4.99,1.1-2.58.81,1.26.85,5.69-.39,11.08-1.93,5.34-1.72,11.58-3.82,16.57-5.03l-2.3.93c1.9-.48,3.97-1.16,6.18-1.97.55-.21,1.12-.41,1.68-.64.56-.25,1.13-.5,1.71-.75,1.16-.52,2.35-1.06,3.58-1.62,4.95-2.14,10.23-5,16.06-7.56,0,0-.47.44.07.31,1.83-1.22,4.11-2.61,6.67-4.11,1.27-.76,2.64-1.5,4.01-2.34,1.36-.85,2.77-1.73,4.2-2.62,2.86-1.77,5.86-3.52,8.64-5.48,1.41-.95,2.8-1.89,4.16-2.8.68-.46,1.35-.91,2.01-1.35.63-.48,1.26-.95,1.87-1.41-.66.72-1.25,1.31-1.75,1.76-.51.43-.9.75-1.14.96-.47.42-.29.44.92.15,4.46-3.22-2.01-.13,6.73-6.66,1.61-.81,3.93-2.48,6.08-3.88,2.14-1.41,4.1-2.57,4.78-2.6l-8.04,6.6c2.41-1.23,5.04-3.37,7.59-5.6,2.48-2.32,4.79-4.86,6.89-6.63l-.18.83c.36-.34.72-.68,1.06-1,.32-.35.63-.68.93-1.01.6-.66,1.16-1.27,1.69-1.85,1.06-1.17,1.97-2.22,2.8-3.18.86-.94,1.48-1.93,2.15-2.8.64-.89,1.25-1.74,1.87-2.6.61-.86,1.25-1.7,1.89-2.64.61-.96,1.28-1.97,2.03-3.08.76-1.11,1.59-2.33,2.54-3.71.88-1.43,1.87-3.02,3.03-4.83l-1.26,1.3c.49-1.07.94-1.96,1.34-2.73.41-.76.7-1.45,1.02-2.03.62-1.16,1.17-1.97,1.73-2.78.53-.82,1.18-1.59,1.73-2.79.58-1.18,1.22-2.71,1.98-4.92.8-.68,1.49-1.42,2.21-2.15.24-.74.52-1.62.84-2.62.3-1,.71-2.09.98-3.32.58-2.44,1.39-5.2,1.87-8.19.25-1.49.62-2.99.79-4.54.2-1.54.4-3.09.6-4.63.17-1.54.25-3.07.38-4.56.05-.74.14-1.47.17-2.19.02-.72.05-1.43.07-2.11.06.79.14,1.68.16,2.65,0,.97-.03,2.03-.07,3.14-.01,2.24-.31,4.69-.59,7.21-.08.63-.13,1.27-.23,1.89l-.33,1.88c-.23,1.26-.45,2.5-.67,3.72-.52,2.41-1.13,4.68-1.58,6.67.45-1.49,1.05-3.49,1.72-5.71.55-2.25,1.11-4.73,1.59-7.13.35-2.42.75-4.75.89-6.68.13-1.94.18-3.47.11-4.28-.16,2.47-.17,5.65-.85,8.03.29-7.63.76-17.49-.49-29.58.54.41.81-.81.69-3.07-.07-2.26-.48-5.56-1.23-9.26-.7-3.71-1.8-7.8-3.01-11.71-.6-1.96-1.26-3.86-1.9-5.66-.15-.47-.3-.92-.44-1.35-.11-.36-.24-.7-.28-.96.53-.14.98-.26,1.36-.33.19-.03.36-.06.51-.07.08,0,.16-.01.23-.02.07,0,.32-.09.46-.12,4.82-2.8,9.33-5.89,13.67-9.28,4.34-3.38,8.5-7.06,12.48-11.07,4-4,7.74-8.41,11.27-13.2,1.81-2.37,3.42-4.92,5.11-7.49.8-1.31,1.56-2.66,2.35-4.01.81-1.34,1.53-2.74,2.24-4.17-5.8,7.11,3.4-6.6.81-6.1,2.38-5.34,3.1-7.45,3.44-7.87,2.6-5.32,4.74-10.86,6.73-16.46,1.73-3.91-1.16,5.49-.6,5.1.94-3.09,1.58-4.95,1.99-6.13.38-1.19.62-1.69.84-2.05.43-.73.78-.91,2.04-5.04-.55.78-.49-.36-.2-2.62.15-1.13.39-2.52.69-4.09.16-.78.32-1.61.5-2.46.15-.86.31-1.75.46-2.66l-.6,2.53-.7,2.51-1.42,4.99c1.31-8.91,2.06-12.69,3.07-16.51.74-3.83,1.77-7.72,1.68-16.8l.27,5.77c.02-2.33.24-5.64.32-9.44.01-1.9.02-3.92.03-6,0-1.04,0-2.09,0-3.16-.04-1.06-.08-2.13-.12-3.19-.1-2.13-.2-4.26-.3-6.33-.03-.52-.06-1.03-.09-1.54-.06-.51-.11-1.02-.17-1.53-.12-1.01-.24-1.99-.35-2.94-.13-.95-.25-1.86-.37-2.74-.12-.88-.25-1.71-.45-2.49-.36-1.56-.72-2.93-1.08-4.03-.02-1.67.19-3.95.92.14-1.52-11.17-5.38-23.32-10.83-33.89-5.38-10.62-11.97-19.71-17.15-26.69l1.44,1.02c-1.38-1.58-2.66-2.88-4.1-4.21-.7-.68-1.42-1.39-2.15-2.2-.37-.4-.73-.83-1.12-1.29-.4-.44-.8-.91-1.21-1.42.33.06,1.52.88.18-.53-.85-.72-2.88-2.62-5.34-4.65-2.39-2.11-5.2-4.34-7.19-6.25l3.92,2.68c-8.02-7.43-15.11-12.01-21.98-15.89-6.9-3.85-13.68-6.94-21.92-10.64.21-.41-1.46-1.64-4.14-3.09-1.33-.74-2.92-1.52-4.64-2.3-.43-.19-.87-.39-1.31-.59l-.61-.26-.15-.09-.5-.3c.04-.18.08-.36.12-.54l.02-.12v-.05s.02-.01.02-.15c.02-.42.04-.84.06-1.25.06-1.64.1-3.17.1-4.49l.2.3c-.16-12.78-1.98-23.46-4.42-33.7-2.5-10.23-5.83-19.98-10.34-30.74-1.96-7-6.9-18.4-14.08-29.8-3.68-5.63-7.67-11.41-12.03-16.63-1.07-1.32-2.14-2.62-3.19-3.91-1.11-1.24-2.21-2.46-3.28-3.67-1.09-1.19-2.1-2.42-3.18-3.53-1.08-1.11-2.13-2.2-3.15-3.26,2.39,2.69-1.15.34-4.27-2.39-1.98-1.89-4.97-4.23-7.34-6.04-2.43-1.74-4.16-3.09-3.43-3.33l1.53,1.22c-1.27-1.72-4.09-4.42-7.76-6.93-1.82-1.29-3.74-2.67-5.73-3.96-2.02-1.23-4.03-2.46-5.92-3.61l-2.08.67c-1.13-.91-2.38-1.71-3.68-2.53-1.3-.82-2.64-1.65-4.03-2.49-2.74-1.74-5.81-3.19-8.92-4.7-1.56-.74-3.13-1.53-4.74-2.21-1.63-.65-3.27-1.3-4.91-1.95-1.64-.64-3.28-1.27-4.91-1.9-1.66-.54-3.32-1.08-4.95-1.6-1.63-.53-3.25-1.05-4.83-1.56-1.59-.49-3.18-.87-4.72-1.3-3.08-.81-5.98-1.73-8.71-2.32-2.72-.66-5.2-1.3-7.37-1.94-2.18-.58-4.07-1.09-5.55-1.66-1.38-.15-2.83-.35-4.33-.56-1.49-.23-3.03-.34-4.57-.53-1.53-.16-3.07-.32-4.56-.48-.75-.07-1.48-.14-2.2-.2-.72-.04-1.43-.06-2.11-.08l.4-.86c-1.9-.22-3.69-.43-5.39-.63-1.7-.19-3.32-.4-4.9-.5-3.16-.23-6.14-.48-9.23-.63-3.09-.09-6.3-.2-9.92-.24-1.81.03-3.72.05-5.77.08-2.05.03-4.24.06-6.6.21,1.28-.25,2.55-.56,3.84-.76-10.7.29-13.34,3.08-23.04,3.98l-3.06-1.04c-18.41,1.86-37.18,4.18-54.65,9.85.24-.26.67-.8,3.58-1.54-4.25.99-12.48,2.92-19.14,4.94-6.67,1.98-11.78,3.98-9.99,4.35-.22-.41-3.03.37-6.89,1.79-1.93.72-4.12,1.58-6.39,2.54-1.13.47-2.28.99-3.43,1.5l-.43.2-.21.1-.08.04-.31.17c-.21.12-.43.24-.64.36-.23-.14-.45-.28-.67-.41l-.18-.11c-.08-.05-.07-.03-.25-.16-.28-.19-.55-.39-.83-.58-1.1-.73-2.12-1.44-3.07-2.04.6.07,1.2.13,1.79.22-3.78-2.08-5.8-2.99-8.1-4.24-1.16-.6-2.4-1.28-3.97-2.2-1.58-.89-3.52-1.98-6.09-3.43-2.36-1.5-1.76-1.84,1.34.23-3.91-2.54-5.58-3.29-7.5-4.08-1.91-.8-4-1.77-8.93-4.5l4,1.41c-4.25-2.21-6.24-3.17-7.82-3.72-1.57-.58-2.69-.85-5.21-1.67-1.4-.55-3.14-1.26-4.97-2.08-1.82-.83-3.75-1.72-5.55-2.54-3.6-1.65-6.61-3.25-7.15-3.83-.69,0-2.33-.29-4.43-.84-1.05-.28-2.23-.63-3.46-1.03-1.24-.39-2.56-.8-3.88-1.3-.63-.52,1.38-.06,2.39.17-1.88-.69-3.65-1.31-5.32-1.87-1.67-.56-3.26-1.07-4.79-1.46-3.05-.82-5.79-1.48-8.37-2.11-2.61-.53-5.06-1.04-7.52-1.63-1.23-.29-2.45-.62-3.71-.94-1.26-.3-2.54-.64-3.86-1.03-.16-.33-.83-.62-1.71-.89,6.24,1.22,11.79,2.74,15.7,3.71,3.89,1.05,6.1,1.78,5.64,1.66.11-.39-2.3-1.33-3.72-2.02-.71-.36-1.18-.6-.95-.74.23-.14,1.15-.12,3.2.19-2.03-.46-4.45-.84-7.08-1.28-1.31-.22-2.67-.46-4.07-.69-1.39-.25-2.81-.5-4.26-.69-2.89-.42-5.82-.88-8.64-1.39-2.82-.47-5.56-.87-8.01-1.4-.47-.16-.92-.31-1.26-.5l1.04.08c-2.27-.45-4.32-.78-6.28-.87-3.16-.55-5.16-.91-8.21-1.32-.27-.2-1.14-.42-2.37-.65-1.23-.18-2.82-.35-4.54-.51-3.44-.29-7.37-.66-9.93-.79.36.91-6.33.43-.1,1.47-.81-.09.98-.12,4.37.19.77.04,1.67.11,2.18.1-.1.01-.22.03-.35.05,3.35.31,7.73.55,12.67,1.26-4.06-.15-8.3-.09-13.89-1.09-1.33.16-2.72.33-3.99.49-1.27.19-2.4.35-3.22.45-1.72-.39-3.86-.77-6.12-1.13-1.13-.17-2.3-.35-3.45-.53-1.16-.12-2.32-.24-3.44-.36-4.48-.45-8.33-.84-9.28-1.23-3.92.14-8.17.45-12.51.64-1.08.06-2.17.11-3.27.17-1.09.1-2.18.2-3.26.3-2.17.21-4.33.43-6.44.63-2.11.23-4.18.41-6.16.7-1.97.31-3.87.63-5.65.95-3.56.65-6.66,1.31-9.03,2.02-4.34.92-5.1.34-6.78.34,2.5-.57,5.52-1.04,6.85-1.48-4.35.91-10.84,1.98-16.46,3.06-5.59,1.28-10.32,2.48-11.23,3.26-5.52.86-4.05.29-3.06-.1.49-.19.86-.34.17-.23-.34.05-.96.17-1.95.38-.98.25-2.34.6-4.2,1.08l1.93-.85c-3.72.69-7.25,1.43-10.64,2.22-1.69.41-3.36.77-4.97,1.25-1.61.5-3.19.99-4.76,1.47-3.12,1-6.16,2.02-9.16,3.05l-2.24.78c-.74.27-1.47.58-2.21.87-1.47.59-2.94,1.17-4.41,1.76-2.95,1.16-5.92,2.33-8.97,3.53-.76.29-1.53.59-2.3.88-.76.32-1.53.65-2.3.98-1.55.64-3.13,1.29-4.73,1.95-3.22,1.29-6.58,2.58-10.13,3.85-3.49,1.43-7.18,2.87-11.13,4.29,2.18-.81,3.27-1.21,3.78-1.23-17.68,7.17-35.06,16.67-51.15,27.9-16.12,11.22-30.88,24.14-44.08,37.72-3.66,3.95-5.62,6.21-6.91,8.33-1.35,2.07-2.28,3.79-4.07,6.54-.73.42-1.47.83-2.16,1.3-1.83,3.3-3.71,6.54-5.46,9.85-.96,1.74-1.93,3.39-2.92,4.98-.5.79-1,1.57-1.5,2.35-.51.76-1.01,1.53-1.46,2.32-.94,1.55-1.89,3.08-2.87,4.61-.96,1.54-2,3.05-2.87,4.68-.91,1.62-1.84,3.27-2.77,4.98-.46.86-.95,1.72-1.38,2.63-.41.92-.84,1.85-1.27,2.81-.83,1.92-1.7,3.92-2.49,6.06-.73,2.17-1.44,4.45-2.12,6.88l1.49-2.22c-1.37,3.34-2.97,8.84-4.28,13.31-1.18,4.51-2.17,7.98-2.36,7.32-.05.75.14,2.46-.8,5.14l-.53.11-.38,2.19-.29,2.2-.57,4.4c-.21,1.46-.29,2.95-.44,4.42-.12,1.47-.3,2.94-.38,4.41-.91,6.8-1.3,6.24-1.79,6.45-.24.11-.48.41-.76,1.95-.14.77-.3,1.85-.44,3.37-.1,1.52-.24,3.48-.31,6.02.02,3.77.47,9.14,1.14,13.18.65,4.02,1.51,6.8,1.46,5.33-.39-3.06-.37-7.74.14-7.99.18,2.26.46,4.51.79,6.75.79.54,1.76,1.97,2.35,1.27.29-.37.5-1.16.64-2.98.13-1.79.21-4.52.36-8.57l-.28-2.82-.2-2.84c-.16-1.89-.21-3.79-.29-5.7.27-1.21.59-2.42.92-3.62-.12,1.59-.18,3.18-.23,4.77-.06,1.59-.11,3.18-.1,4.77.32-2.7.5-4.9.44-6.92,0-2.02-.1-3.85-.18-5.79.43-.88.89-2.44,1.26-4.66-.07-1.87-.03-3.74,0-5.61.03-1.88.04-3.76.17-5.64.8-1.23.24,5.11,1.87-2.19.3-5.27-2.19,4.71-1-3.91.92-2.6,1.42-3.48,1.8-4.5.19-.51.35-1.06.51-1.88.18-.82.4-1.89.67-3.47.6-.77.48.6,0,3.08.25-1.4.61-3.01,1-4.69.2-.84.4-1.69.61-2.55.21-.85.48-1.69.7-2.51.96-3.28,1.68-6.28,1.87-7.77,1.38-2.53,2.88-7.09,4.54-10.76.79-1.85,1.52-3.52,2.11-4.65.65-1.11,1.15-1.69,1.41-1.42.23-.87,1.07-3.24,2.13-5.99.5-1.39,1.19-2.81,1.84-4.2.66-1.39,1.33-2.73,1.94-3.89-.78,2.3-.58,2.37.17,1.25.75-1.12,1.99-3.47,3.57-5.88,1.54-2.43,3.14-5.09,4.48-6.86,1.38-1.75,2.34-2.72,2.35-1.95.69-1.65,1.92-3.81,3.46-6.29,1.67-2.39,3.69-5.07,5.83-7.87,4.44-5.49,9.56-11.29,13.76-15.96-.41.58-1.2,1.74-2.03,2.47,2.52-2.47,4.21-3.99,5.69-5.27,1.53-1.23,2.89-2.18,4.65-3.6-.08-.76,1.86-3.04,4.32-5.71,2.56-2.56,5.72-5.41,7.79-7.6,7.47-4.53-3.19,4.46-.36,3.63-.24-.13.33-.83,1.27-1.79.47-.48,1.04-1.03,1.65-1.61.6-.58,1.25-1.18,1.93-1.71,2.65-2.2,5.08-4.21,3.64-3.68,2.88-1.67,4.12-2.39,5.02-2.91.92-.48,1.47-.78,3.2-1.26.12-1.91,5.04-3.55,9.16-7.33,2.1-1.17,3.41-1.63,4.22-1.92.82-.28,1.19-.32,1.56-.42.75-.19,1.51-.56,5.97-3.38,4.58-2.07-3.28,3.04-3.28,3.04Zm242.03-47.88s0,.02,0,.02c-2.14-.34-3.97-.64-5.14-.82,1.07.17,2.55.4,5.14.81Zm20.72,4.36c-2.49-.66-5.6-1.47-8.94-2.11-.66-.45.19-.59,2.28-.14-.59-.01.33.26,1.77.69,1.43.46,3.39,1.06,4.89,1.56Zm-43.51-13.66c3.42.17,4.54.46,4.98.72-1.6-.21-3.49-.29-5.95-.47-.1.02-.31.04-.41.07.34-.14.73-.26,1.39-.32Z"/><path class="cls-2" d="m446.09,12.03c-.49-.02-.77-.01-1.4-.06.69.14,1.34.27,2.01.38.42-.06.85-.12,1.22-.17-.62-.05-1.25-.1-1.83-.15Z"/><path class="cls-2" d="m137.54,610.8l.24.39c-.19-.33-.35-.64-.44-.86.14.27.11.29.2.47Z"/><polygon class="cls-2" points="775.8 50.76 775.82 50.54 773.98 50.39 775.8 50.76"/><path class="cls-2" d="m70.9,519.11c-.08-.22-.29-.62-.78-1.34,0,.09.35.65.78,1.34Z"/><path class="cls-2" d="m44.79,476.33c-.85-2.21-1.6-4.46-2.4-6.69,1,2.9,1.72,5.03,2.4,6.69Z"/><path class="cls-2" d="m33.88,439.44c-.24-.45-.38-.57-.51-.67,0,.03,0,.05,0,.08l.5.6Z"/><path class="cls-2" d="m512.76,690.14c.5.12.99.24,1.44.33,3.4.62,1.09.19-1.44-.33Z"/><path class="cls-2" d="m341.63,695.63c1.94-.24,3.85-.49,5.88-.67-3.27.07-5.8.16-5.88.67Z"/><path class="cls-2" d="m706.98,664.65s0,0-.02,0c.42.12.78.22,1.2.34-.39-.11-.79-.22-1.18-.35Z"/><path class="cls-2" d="m356.01,694.32c-3.27.07-5.98.37-8.5.64,2.67-.1,5.82-.3,8.5-.64Z"/><path class="cls-2" d="m81.25,287.2l1.38-1.23c-.06-.02-.01-.13.07-.26l-1.45,1.48Z"/><path class="cls-2" d="m82.7,285.72c.48-.49.95-.99,1.46-1.46-.72.61-1.3,1.19-1.46,1.46Z"/><path class="cls-2" d="m87.29,281.26l-3.13,3c1.14-.98,2.55-2.16,3.13-3Z"/><path class="cls-2" d="m49.83,326.9v.67c.1-.31.1-.54,0-.67Z"/><path class="cls-2" d="m43.24,340.87c.37-.84.82-1.78,1.31-2.79.48-1.01,1.11-2.04,1.7-3.14.6-1.09,1.21-2.23,1.79-3.39.58-1.16,1.25-2.29,1.79-3.45v-.54c-.18.59-.65,1.48-1.27,2.55-.64,1.06-1.3,2.35-2.04,3.65-.72,1.31-1.47,2.64-2.07,3.87-.56,1.25-1,2.39-1.22,3.25Z"/><path class="cls-2" d="m26.83,403.8l.3-6.62.08-1.65.16-1.65.32-3.3c-.52,2.28-1.22,5.31-.83-.73-.58,4.16-.82,6.04-.78,6.78,0,.74.14.33.3-.06.32-.77.75-1.44.46,7.24Z"/><path class="cls-2" d="m30.44,444.76c-1.52-6.99-.5.19-.74-.14,1.37,4.36,1.7,5.4.74.14Z"/><path class="cls-2" d="m209,668.61l-1,.4c4.98,2.35.18-.26,1-.4Z"/><path class="cls-2" d="m263.03,684.9l-4.92-1.93c-.88.02-1.74,0-2.61-.04,2.48.75,5.02,1.3,7.52,1.96Z"/><path class="cls-2" d="m294.39,697.66l-2.4-.26,4.58.56c1.53.19,3.05.4,4.58.5l-1.7-.15-1.69-.22-3.37-.44Z"/><path class="cls-2" d="m762.12,681.36c-.54-.34-1.08-.71-1.62-1.07-3.72-.05-4.58,1.04,1.62,1.07Z"/><path class="cls-2" d="m952.11,596.15c1.78-1.67,5.07-6.95,6.31-10.58-.49,1.13-1.17,2.16-1.76,3.2-.61,1.02-1.2,2.01-1.75,2.94-.28.46-.54.91-.79,1.33-.28.41-.54.8-.79,1.17-.49.74-.9,1.39-1.21,1.94Z"/><polygon class="cls-2" points="831.77 61.99 835.79 63.78 832.08 61.94 830.23 61.01 828.33 60.19 830.07 61.05 831.77 61.99"/></svg>