<?xml version="1.0" encoding="UTF-8"?>
<svg id="Layer_2" data-name="Layer 2" xmlns="http://www.w3.org/2000/svg" xmlns:xlink="http://www.w3.org/1999/xlink" viewBox="0 0 1079 1079">
  <defs>
    <style>
      .cls-1 {
        fill: #e81f76;
      }

      .cls-1, .cls-2 {
        stroke-width: 0px;
      }

      .cls-3 {
        fill: #fff;
        filter: url(#drop-shadow-1);
        stroke: #dadbdc;
        stroke-miterlimit: 10;
        stroke-width: .21px;
      }

      .cls-2 {
        fill: #9e28b5;
      }
    </style>
    <filter id="drop-shadow-1" filterUnits="userSpaceOnUse">
      <feOffset dx="10" dy="10"/>
      <feGaussianBlur result="blur" stdDeviation="9"/>
      <feFlood flood-color="#000" flood-opacity=".23"/>
      <feComposite in2="blur" operator="in"/>
      <feComposite in="SourceGraphic"/>
    </filter>
  </defs>
  <g id="Layer_1-2" data-name="Layer 1">
    <rect class="cls-3" x="17.28" y="17.37" width="1024" height="1024"/>
    <g>
      <circle class="cls-1" cx="465.48" cy="222.68" r="24.38"/>
      <g>
        <path class="cls-1" d="m253.64,479.21l-64.29-131.38-18.43,155.71c-1.39,10.08-8.34,17.03-20.85,17.03-11.13,0-16.68-10.43-15.64-20.51l25.03-205.06c1.04-9.39,7.99-17.38,17.38-17.38h2.43c7.64,0,14.94,3.13,19.12,11.82l76.81,160.58,76.81-160.58c4.17-8.69,11.47-11.82,19.11-11.82h2.44c9.38,0,16.33,7.99,17.38,17.38l25.03,205.06c1.04,10.08-4.52,20.51-15.64,20.51-12.51,0-19.47-6.95-20.86-17.03l-18.42-155.71-64.3,131.38c-3.48,7.3-10.08,15.29-21.55,15.29s-18.08-7.99-21.55-15.29Z"/>
        <path class="cls-1" d="m484.43,501.8c0,10.08-8.34,18.77-19.11,18.77-9.73,0-17.73-8.69-17.73-18.77v-205.41c0-10.08,7.99-18.77,17.73-18.77,10.78,0,19.11,8.69,19.11,18.77v205.41Z"/>
        <path class="cls-1" d="m698.88,503.19c0,9.38-7.64,17.38-17.38,17.38h-4.86c-8.34,0-12.86-2.78-17.38-10.43l-97.66-162.66v154.32c0,10.08-8.34,18.77-19.11,18.77-9.73,0-17.73-8.69-17.73-18.77v-206.45c0-9.73,7.99-17.73,17.73-17.73h4.86c8.34,0,13.56,2.78,18.08,10.43l96.62,161.27v-152.93c0-10.08,7.99-18.77,17.73-18.77,10.78,0,19.12,8.69,19.12,18.77v206.8Z"/>
        <path class="cls-1" d="m758.31,518.83c-11.12,0-19.46-7.64-19.46-20.16v-199.15c0-12.51,8.34-20.16,19.46-20.16h73.68c68.13,0,107.75,52.14,107.75,120.26s-39.62,119.21-107.75,119.21h-73.68Zm17.38-34.06h56.3c46.93,0,70.91-37.54,70.91-85.16s-23.98-86.2-70.91-86.2h-56.3v171.35Z"/>
      </g>
      <g>
        <path class="cls-2" d="m153.26,791.9c-12.54,0-19.66-9.83-19.66-21.02v-191.52c.34-11.53,7.11-21.01,19.66-21.01h73.9c42.03,0,69.15,25.08,69.15,65.08,0,15.25-7.79,34.58-31.86,43.73,30.84,7.79,44.06,34.23,44.06,53.22,0,38.64-28.13,71.52-74.57,71.52h-80.68Zm69.15-140.33c12.88,0,21.69-10.84,21.69-24.74s-7.46-24.74-22.03-24.74h-38.64v49.49h38.98Zm-38.98,39.32v57.29h47.79c16.61,0,25.08-15.26,25.08-29.15s-8.48-28.14-26.1-28.14h-46.78Z"/>
        <path class="cls-2" d="m427.47,555.64c66.44,0,118.64,53.56,118.64,120s-52.2,119.31-118.64,119.31-118.3-53.56-118.3-119.31,52.2-120,118.3-120Zm0,191.18c39.66,0,69.15-32.2,69.15-71.18s-29.49-71.86-69.15-71.86-68.81,32.88-68.81,71.86,29.15,71.18,68.81,71.18Z"/>
        <path class="cls-2" d="m579.3,791.9c-12.54,0-19.66-9.83-19.66-21.02v-191.52c.34-11.53,7.11-21.01,19.66-21.01h73.9c42.03,0,69.15,25.08,69.15,65.08,0,15.25-7.79,34.58-31.86,43.73,30.84,7.79,44.06,34.23,44.06,53.22,0,38.64-28.13,71.52-74.57,71.52h-80.68Zm69.15-140.33c12.88,0,21.69-10.84,21.69-24.74s-7.46-24.74-22.03-24.74h-38.64v49.49h38.98Zm-38.98,39.32v57.29h47.79c16.61,0,25.08-15.26,25.08-29.15s-8.47-28.14-26.1-28.14h-46.78Z"/>
        <path class="cls-2" d="m796.55,736.65l-15.93,42.71c-4.41,11.53-18.64,16.95-31.18,12.88-12.21-4.07-18.98-19.32-14.92-30.84l67.46-181.68c5.43-14.24,16.27-23.05,33.56-23.05h2.04c17.29,0,28.13,8.81,33.56,23.05l67.46,181.68c4.06,11.53-2.71,26.78-14.92,30.84-12.54,4.07-26.78-1.36-31.18-12.88l-15.93-42.71h-80Zm63.73-43.05l-23.73-81.35-23.73,81.35h47.45Z"/>
      </g>
      <g>
        <path class="cls-2" d="m902.68,560.31h-11.4v-2.63h26.12v2.63h-11.4v32.69h-3.32v-32.69Z"/>
        <path class="cls-2" d="m923.04,557.69h2.94l14.13,24.08,14.08-24.08h2.78v35.32h-3.05v-29.38l-13.01,22.11h-1.82l-13-22.11v29.38h-3.05v-35.32Z"/>
      </g>
    </g>
  </g>
</svg>