<?xml version="1.0" encoding="UTF-8"?><svg id="Layer_1" xmlns="http://www.w3.org/2000/svg" viewBox="0 0 180 100"><defs><style>.cls-1{fill:#e81f76;}</style></defs><path class="cls-1" d="m166.68,49.81c0-17.9,4.66-34.7,12.82-49.29V0s-86.6,50-86.6,50l86.6,50v-.9c-8.16-14.58-12.82-31.39-12.82-49.29Z"/><path d="m5.23,59.36v-18.71h8.39c2.16,0,3.81.43,4.97,1.3s1.74,2.04,1.74,3.54c0,1.02-.23,1.87-.68,2.57-.46.7-1.07,1.23-1.83,1.6-.77.37-1.6.56-2.49.56l.48-.8c1.07,0,2.01.19,2.83.56s1.47.92,1.95,1.64c.48.72.72,1.62.72,2.69,0,1.6-.6,2.85-1.8,3.73s-2.99,1.32-5.36,1.32H5.23Zm2.67-2.17h6.15c1.48,0,2.61-.25,3.39-.75.78-.5,1.18-1.28,1.18-2.35s-.39-1.88-1.18-2.38c-.78-.5-1.92-.75-3.39-.75h-6.39v-2.17h5.72c1.35,0,2.41-.25,3.15-.75.75-.5,1.12-1.25,1.12-2.25s-.37-1.75-1.12-2.25c-.75-.5-1.8-.75-3.15-.75h-5.48v14.38Z"/><path d="m22.63,59.36l8.47-18.71h2.65l8.5,18.71h-2.81l-7.56-17.21h1.07l-7.56,17.21h-2.75Zm3.61-4.68l.72-2.14h10.53l.78,2.14h-12.03Z"/><path d="m53.13,59.57c-1.43,0-2.74-.24-3.94-.71-1.2-.47-2.25-1.14-3.13-2-.88-.86-1.57-1.88-2.07-3.03s-.75-2.43-.75-3.82.25-2.66.75-3.82c.5-1.16,1.19-2.17,2.08-3.03.89-.86,1.94-1.53,3.14-2,1.2-.47,2.52-.71,3.94-.71s2.78.25,4,.74,2.26,1.22,3.11,2.18l-1.74,1.68c-.71-.75-1.51-1.3-2.41-1.67-.89-.36-1.84-.55-2.86-.55s-2.03.18-2.93.54c-.9.36-1.68.86-2.34,1.5s-1.17,1.4-1.54,2.29-.55,1.84-.55,2.87.18,1.99.55,2.87.88,1.64,1.54,2.29c.66.64,1.44,1.14,2.34,1.5.9.36,1.88.54,2.93.54s1.97-.18,2.86-.55c.89-.37,1.69-.93,2.41-1.7l1.74,1.68c-.86.96-1.89,1.69-3.11,2.19s-2.56.75-4.02.75Z"/><path d="m64.09,59.36v-18.71h2.67v18.71h-2.67Zm2.35-4.52l-.13-3.26,10.61-10.93h3.05l-8.21,8.66-1.5,1.66-3.82,3.88Zm10.91,4.52l-7.67-8.93,1.79-1.98,9.01,10.91h-3.13Z"/></svg>