<?xml version="1.0" encoding="UTF-8"?><svg id="Layer_1" xmlns="http://www.w3.org/2000/svg" viewBox="0 0 178 100"><defs><style>.cls-1{fill:#0083ca;}</style></defs><path class="cls-1" d="m13.32,50.19c0,17.9-4.66,34.7-12.82,49.29v.53l86.6-50L.5,0v.9c8.16,14.58,12.82,31.39,12.82,49.29Z"/><path d="m99.83,59.36v-18.71h2.19l12.38,15.37h-1.15v-15.37h2.67v18.71h-2.19l-12.38-15.37h1.15v15.37h-2.67Z"/><path d="m124.21,57.03h10.91v2.33h-13.58v-18.71h13.21v2.33h-10.53v14.06Zm-.24-8.31h9.62v2.27h-9.62v-2.27Z"/><path d="m136.77,59.36l7.78-10.61v2.06l-7.35-10.16h3.05l5.83,7.99-1.2.03,5.8-8.02h2.91l-7.3,10v-1.92l7.78,10.64h-3.07l-6.2-8.53h1.18l-6.12,8.53h-3.07Z"/><path d="m160.14,59.36v-16.39h-6.42v-2.33h15.48v2.33h-6.42v16.39h-2.65Z"/></svg>